solid coathanger
facet normal -1.0 0.0 0.0
  outer loop
    vertex 2055.4154119830823 200.42568155596933 1962.9664256958433
    vertex 2055.4154119830823 199.13158633045757 1958.1367965643979
    vertex 2055.4154119830823 195.59605242452378 1964.2605209213552
  endloop
endfacet
facet normal -1.0 0.0 0.0
  outer loop
    vertex 2055.4154119830823 235.87393247220467 1999.3499999999997
    vertex 2055.4154119830823 173.0887537634153 1996.173237931664
    vertex 2055.4154119830823 173.0887537634153 2016.1732379316638
  endloop
endfacet
facet normal -1.0 0.0 0.0
  outer loop
    vertex 2055.4154119830823 173.0887537634153 1996.173237931664
    vertex 2055.4154119830823 235.87393247220467 1999.3499999999997
    vertex 2055.4154119830823 226.21467420931398 1981.9381904510249
  endloop
endfacet
facet normal -1.0 0.0 0.0
  outer loop
    vertex 2055.4154119830823 235.87393247220467 2139.6
    vertex 2055.4154119830823 241.87393247220467 2133.6
    vertex 2055.4154119830823 235.87393247220467 1999.3499999999997
  endloop
endfacet
facet normal -1.0 0.0 0.0
  outer loop
    vertex 2055.4154119830823 241.87393247220467 2133.6
    vertex 2055.4154119830823 235.87393247220467 2139.6
    vertex 2055.4154119830823 291.5739324722046 2139.6
  endloop
endfacet
facet normal -1.0 0.0 0.0
  outer loop
    vertex 2055.4154119830823 241.87393247220467 2133.6
    vertex 2055.4154119830823 291.5739324722046 2139.6
    vertex 2055.4154119830823 285.57393247220466 2133.6
  endloop
endfacet
facet normal -1.0 0.0 0.0
  outer loop
    vertex 2055.4154119830823 285.57393247220466 2133.6
    vertex 2055.4154119830823 291.5739324722046 2139.6
    vertex 2055.4154119830823 285.57393247220466 2078.5999999999926
  endloop
endfacet
facet normal -1.0 0.0 0.0
  outer loop
    vertex 2055.4154119830823 285.57393247220466 2078.5999999999926
    vertex 2055.4154119830823 291.5739324722046 2139.6
    vertex 2055.4154119830823 291.57393247220466 2078.5999999999926
  endloop
endfacet
facet normal -1.0 0.0 0.0
  outer loop
    vertex 2055.4154119830823 191.71376674798728 1949.7716335270186
    vertex 2055.4154119830823 199.13158633045757 1958.1367965643979
    vertex 2055.4154119830823 225.52117066810507 1940.7129669484348
  endloop
endfacet
facet normal -1.0 0.0 0.0
  outer loop
    vertex 2055.4154119830823 199.13158633045757 1958.1367965643979
    vertex 2055.4154119830823 191.71376674798728 1949.7716335270186
    vertex 2055.4154119830823 195.59605242452378 1964.2605209213552
  endloop
endfacet
facet normal -1.0 0.0 0.0
  outer loop
    vertex 2055.4154119830823 225.52117066810507 1940.7129669484348
    vertex 2055.4154119830823 199.13158633045757 1958.1367965643979
    vertex 2055.4154119830823 218.45010285623908 1952.9604156623507
  endloop
endfacet
facet normal -1.0 0.0 0.0
  outer loop
    vertex 2055.4154119830823 225.52117066810507 1940.7129669484348
    vertex 2055.4154119830823 218.45010285623908 1952.9604156623507
    vertex 2055.4154119830823 226.21467420931398 1981.9381904510249
  endloop
endfacet
facet normal -1.0 0.0 0.0
  outer loop
    vertex 2055.4154119830823 225.52117066810507 1940.7129669484348
    vertex 2055.4154119830823 226.21467420931398 1981.9381904510249
    vertex 2055.4154119830823 241.87393247220467 1979.35
  endloop
endfacet
facet normal -1.0 0.0 0.0
  outer loop
    vertex 2055.4154119830823 241.87393247220467 1979.35
    vertex 2055.4154119830823 226.21467420931398 1981.9381904510249
    vertex 2055.4154119830823 235.87393247220467 1999.3499999999997
  endloop
endfacet
facet normal -1.0 0.0 0.0
  outer loop
    vertex 2055.4154119830823 241.87393247220467 1979.35
    vertex 2055.4154119830823 235.87393247220467 1999.3499999999997
    vertex 2055.4154119830823 241.87393247220467 2133.6
  endloop
endfacet
facet normal 3.0125014105466767e-16 -0.25881904510253034 -0.9659258262890659
  outer loop
    vertex 2075.415411983082 226.214674209314 1981.9381904510249
    vertex 2055.4154119830823 173.0887537634153 1996.173237931664
    vertex 2055.4154119830823 226.21467420931398 1981.9381904510249
  endloop
endfacet
facet normal 3.0125014105466767e-16 -0.25881904510253034 -0.9659258262890659
  outer loop
    vertex 2055.4154119830823 173.0887537634153 1996.173237931664
    vertex 2075.415411983082 226.214674209314 1981.9381904510249
    vertex 2075.415411983082 173.0887537634153 1996.173237931664
  endloop
endfacet
facet normal 0.0 -1.0 0.0
  outer loop
    vertex 2075.415411983082 235.87393247220467 2139.6
    vertex 2055.4154119830823 235.87393247220467 1999.3499999999997
    vertex 2075.415411983082 235.87393247220467 1999.3499999999997
  endloop
endfacet
facet normal 0.0 -1.0 0.0
  outer loop
    vertex 2055.4154119830823 235.87393247220467 1999.3499999999997
    vertex 2075.415411983082 235.87393247220467 2139.6
    vertex 2055.4154119830823 235.87393247220467 2139.6
  endloop
endfacet
facet normal 0.0 -1.0 0.0
  outer loop
    vertex 2075.415411983082 173.0887537634153 2016.1732379316638
    vertex 2055.4154119830823 173.0887537634153 1996.173237931664
    vertex 2075.415411983082 173.0887537634153 1996.173237931664
  endloop
endfacet
facet normal 0.0 -1.0 0.0
  outer loop
    vertex 2055.4154119830823 173.0887537634153 1996.173237931664
    vertex 2075.415411983082 173.0887537634153 2016.1732379316638
    vertex 2055.4154119830823 173.0887537634153 2016.1732379316638
  endloop
endfacet
facet normal -0.0 0.2588190451025256 0.9659258262890671
  outer loop
    vertex 2075.415411983082 173.0887537634153 2016.1732379316638
    vertex 2055.4154119830823 235.87393247220467 1999.3499999999997
    vertex 2055.4154119830823 173.0887537634153 2016.1732379316638
  endloop
endfacet
facet normal -0.0 0.2588190451025256 0.9659258262890671
  outer loop
    vertex 2055.4154119830823 235.87393247220467 1999.3499999999997
    vertex 2075.415411983082 173.0887537634153 2016.1732379316638
    vertex 2075.415411983082 235.87393247220467 1999.3499999999997
  endloop
endfacet
facet normal 3.0125014105451666e-16 -0.25881904510240056 -0.9659258262891005
  outer loop
    vertex 2075.415411983082 225.52117066810507 1940.7129669484348
    vertex 2055.4154119830823 191.71376674798728 1949.7716335270186
    vertex 2055.4154119830823 225.52117066810507 1940.7129669484348
  endloop
endfacet
facet normal 3.0125014105451666e-16 -0.25881904510240056 -0.9659258262891005
  outer loop
    vertex 2055.4154119830823 191.71376674798728 1949.7716335270186
    vertex 2075.415411983082 225.52117066810507 1940.7129669484348
    vertex 2075.415411983082 191.71376674798734 1949.7716335270186
  endloop
endfacet
facet normal 3.2755489630537937e-15 -0.9659258262890795 0.2588190451024794
  outer loop
    vertex 2075.415411983082 226.214674209314 1981.9381904510249
    vertex 2055.4154119830823 218.45010285623908 1952.9604156623507
    vertex 2075.415411983082 218.45010285623917 1952.9604156623507
  endloop
endfacet
facet normal 3.2755489630537937e-15 -0.9659258262890795 0.2588190451024794
  outer loop
    vertex 2055.4154119830823 218.45010285623908 1952.9604156623507
    vertex 2075.415411983082 226.214674209314 1981.9381904510249
    vertex 2055.4154119830823 226.21467420931398 1981.9381904510249
  endloop
endfacet
facet normal 3.2701437667451674e-15 -0.9659258262890924 0.2588190451024315
  outer loop
    vertex 2075.415411983082 195.5960524245239 1964.2605209213552
    vertex 2055.4154119830823 191.71376674798728 1949.7716335270186
    vertex 2075.415411983082 191.71376674798734 1949.7716335270186
  endloop
endfacet
facet normal 3.2701437667451674e-15 -0.9659258262890924 0.2588190451024315
  outer loop
    vertex 2055.4154119830823 191.71376674798728 1949.7716335270186
    vertex 2075.415411983082 195.5960524245239 1964.2605209213552
    vertex 2055.4154119830823 195.59605242452378 1964.2605209213552
  endloop
endfacet
facet normal -5.79327194335523e-16 0.25881904510236214 0.9659258262891108
  outer loop
    vertex 2075.415411983082 199.13158633045757 1958.1367965643979
    vertex 2055.4154119830823 218.45010285623908 1952.9604156623507
    vertex 2055.4154119830823 199.13158633045757 1958.1367965643979
  endloop
endfacet
facet normal -5.79327194335523e-16 0.25881904510236214 0.9659258262891108
  outer loop
    vertex 2055.4154119830823 218.45010285623908 1952.9604156623507
    vertex 2075.415411983082 199.13158633045757 1958.1367965643979
    vertex 2075.415411983082 218.45010285623917 1952.9604156623507
  endloop
endfacet
facet normal -5.851204662788654e-16 0.25881904510235654 0.9659258262891123
  outer loop
    vertex 2075.415411983082 195.5960524245239 1964.2605209213552
    vertex 2055.4154119830823 200.42568155596933 1962.9664256958433
    vertex 2055.4154119830823 195.59605242452378 1964.2605209213552
  endloop
endfacet
facet normal -5.851204662788654e-16 0.25881904510235654 0.9659258262891123
  outer loop
    vertex 2055.4154119830823 200.42568155596933 1962.9664256958433
    vertex 2075.415411983082 195.5960524245239 1964.2605209213552
    vertex 2075.415411983082 200.42568155596933 1962.9664256958433
  endloop
endfacet
facet normal -0.0 0.9659258262891132 -0.25881904510235404
  outer loop
    vertex 2055.4154119830823 200.42568155596933 1962.9664256958433
    vertex 2075.415411983082 199.13158633045757 1958.1367965643979
    vertex 2055.4154119830823 199.13158633045757 1958.1367965643979
  endloop
endfacet
facet normal -0.0 0.9659258262891132 -0.25881904510235404
  outer loop
    vertex 2075.415411983082 199.13158633045757 1958.1367965643979
    vertex 2055.4154119830823 200.42568155596933 1962.9664256958433
    vertex 2075.415411983082 200.42568155596933 1962.9664256958433
  endloop
endfacet
facet normal 1.0 -0.0 -0.0
  outer loop
    vertex 2075.415411983082 291.57393247220466 2078.5999999999926
    vertex 2075.415411983082 285.57393247220466 2133.6
    vertex 2075.415411983082 285.57393247220466 2078.5999999999926
  endloop
endfacet
facet normal 1.0 -0.0 -0.0
  outer loop
    vertex 2075.415411983082 285.57393247220466 2133.6
    vertex 2075.415411983082 291.57393247220466 2078.5999999999926
    vertex 2075.415411983082 291.5739324722046 2139.6
  endloop
endfacet
facet normal 1.0 -0.0 -0.0
  outer loop
    vertex 2075.415411983082 191.71376674798734 1949.7716335270186
    vertex 2075.415411983082 199.13158633045757 1958.1367965643979
    vertex 2075.415411983082 195.5960524245239 1964.2605209213552
  endloop
endfacet
facet normal 1.0 -0.0 -0.0
  outer loop
    vertex 2075.415411983082 199.13158633045757 1958.1367965643979
    vertex 2075.415411983082 191.71376674798734 1949.7716335270186
    vertex 2075.415411983082 225.52117066810507 1940.7129669484348
  endloop
endfacet
facet normal 1.0 -0.0 -0.0
  outer loop
    vertex 2075.415411983082 199.13158633045757 1958.1367965643979
    vertex 2075.415411983082 225.52117066810507 1940.7129669484348
    vertex 2075.415411983082 218.45010285623917 1952.9604156623507
  endloop
endfacet
facet normal 1.0 -0.0 -0.0
  outer loop
    vertex 2075.415411983082 218.45010285623917 1952.9604156623507
    vertex 2075.415411983082 225.52117066810507 1940.7129669484348
    vertex 2075.415411983082 226.214674209314 1981.9381904510249
  endloop
endfacet
facet normal 1.0 -0.0 -0.0
  outer loop
    vertex 2075.415411983082 226.214674209314 1981.9381904510249
    vertex 2075.415411983082 225.52117066810507 1940.7129669484348
    vertex 2075.415411983082 241.87393247220467 1979.35
  endloop
endfacet
facet normal 1.0 -0.0 -0.0
  outer loop
    vertex 2075.415411983082 226.214674209314 1981.9381904510249
    vertex 2075.415411983082 241.87393247220467 1979.35
    vertex 2075.415411983082 235.87393247220467 1999.3499999999997
  endloop
endfacet
facet normal 1.0 -0.0 -0.0
  outer loop
    vertex 2075.415411983082 235.87393247220467 1999.3499999999997
    vertex 2075.415411983082 241.87393247220467 1979.35
    vertex 2075.415411983082 235.87393247220467 2139.6
  endloop
endfacet
facet normal 1.0 -0.0 -0.0
  outer loop
    vertex 2075.415411983082 235.87393247220467 2139.6
    vertex 2075.415411983082 241.87393247220467 1979.35
    vertex 2075.415411983082 241.87393247220467 2133.6
  endloop
endfacet
facet normal 1.0 -0.0 -0.0
  outer loop
    vertex 2075.415411983082 235.87393247220467 2139.6
    vertex 2075.415411983082 241.87393247220467 2133.6
    vertex 2075.415411983082 291.5739324722046 2139.6
  endloop
endfacet
facet normal 1.0 -0.0 -0.0
  outer loop
    vertex 2075.415411983082 291.5739324722046 2139.6
    vertex 2075.415411983082 241.87393247220467 2133.6
    vertex 2075.415411983082 285.57393247220466 2133.6
  endloop
endfacet
facet normal 1.0 -0.0 -0.0
  outer loop
    vertex 2075.415411983082 226.214674209314 1981.9381904510249
    vertex 2075.415411983082 173.0887537634153 2016.1732379316638
    vertex 2075.415411983082 173.0887537634153 1996.173237931664
  endloop
endfacet
facet normal 1.0 -0.0 -0.0
  outer loop
    vertex 2075.415411983082 173.0887537634153 2016.1732379316638
    vertex 2075.415411983082 226.214674209314 1981.9381904510249
    vertex 2075.415411983082 235.87393247220467 1999.3499999999997
  endloop
endfacet
facet normal 1.0 -0.0 -0.0
  outer loop
    vertex 2075.415411983082 200.42568155596933 1962.9664256958433
    vertex 2075.415411983082 195.5960524245239 1964.2605209213552
    vertex 2075.415411983082 199.13158633045757 1958.1367965643979
  endloop
endfacet
facet normal -0.0 0.9209131461425901 -0.38976785047224766
  outer loop
    vertex 2055.4154119830823 241.87393247220467 1979.35
    vertex 2075.415411983082 225.52117066810507 1940.7129669484348
    vertex 2055.4154119830823 225.52117066810507 1940.7129669484348
  endloop
endfacet
facet normal -0.0 0.9209131461425901 -0.38976785047224766
  outer loop
    vertex 2075.415411983082 225.52117066810507 1940.7129669484348
    vertex 2055.4154119830823 241.87393247220467 1979.35
    vertex 2075.415411983082 241.87393247220467 1979.35
  endloop
endfacet
facet normal -0.0 1.0 -0.0
  outer loop
    vertex 2055.4154119830823 241.87393247220467 2133.6
    vertex 2075.415411983082 241.87393247220467 1979.35
    vertex 2055.4154119830823 241.87393247220467 1979.35
  endloop
endfacet
facet normal -0.0 1.0 -0.0
  outer loop
    vertex 2075.415411983082 241.87393247220467 1979.35
    vertex 2055.4154119830823 241.87393247220467 2133.6
    vertex 2075.415411983082 241.87393247220467 2133.6
  endloop
endfacet
facet normal -0.0 -0.0 1.0
  outer loop
    vertex 2075.415411983082 235.87393247220467 2139.6
    vertex 2055.4154119830823 291.5739324722046 2139.6
    vertex 2055.4154119830823 235.87393247220467 2139.6
  endloop
endfacet
facet normal -0.0 -0.0 1.0
  outer loop
    vertex 2055.4154119830823 291.5739324722046 2139.6
    vertex 2075.415411983082 235.87393247220467 2139.6
    vertex 2075.415411983082 291.5739324722046 2139.6
  endloop
endfacet
facet normal 0.0 1.0 7.519910620127626e-15
  outer loop
    vertex 2055.4154119830823 291.5739324722046 2139.6
    vertex 2075.415411983082 291.57393247220466 2078.5999999999926
    vertex 2055.4154119830823 291.57393247220466 2078.5999999999926
  endloop
endfacet
facet normal 0.0 1.0 7.519910620127626e-15
  outer loop
    vertex 2075.415411983082 291.57393247220466 2078.5999999999926
    vertex 2055.4154119830823 291.5739324722046 2139.6
    vertex 2075.415411983082 291.5739324722046 2139.6
  endloop
endfacet
facet normal 0.0 0.0 -1.0
  outer loop
    vertex 2075.415411983082 285.57393247220466 2133.6
    vertex 2055.4154119830823 241.87393247220467 2133.6
    vertex 2055.4154119830823 285.57393247220466 2133.6
  endloop
endfacet
facet normal 0.0 0.0 -1.0
  outer loop
    vertex 2055.4154119830823 241.87393247220467 2133.6
    vertex 2075.415411983082 285.57393247220466 2133.6
    vertex 2075.415411983082 241.87393247220467 2133.6
  endloop
endfacet
facet normal 0.0 0.0 -1.0
  outer loop
    vertex 2075.415411983082 291.57393247220466 2078.5999999999926
    vertex 2055.4154119830823 285.57393247220466 2078.5999999999926
    vertex 2055.4154119830823 291.57393247220466 2078.5999999999926
  endloop
endfacet
facet normal 0.0 0.0 -1.0
  outer loop
    vertex 2055.4154119830823 285.57393247220466 2078.5999999999926
    vertex 2075.415411983082 291.57393247220466 2078.5999999999926
    vertex 2075.415411983082 285.57393247220466 2078.5999999999926
  endloop
endfacet
facet normal -0.0 -1.0 -0.0
  outer loop
    vertex 2075.415411983082 285.57393247220466 2133.6
    vertex 2055.4154119830823 285.57393247220466 2078.5999999999926
    vertex 2075.415411983082 285.57393247220466 2078.5999999999926
  endloop
endfacet
facet normal -0.0 -1.0 -0.0
  outer loop
    vertex 2055.4154119830823 285.57393247220466 2078.5999999999926
    vertex 2075.415411983082 285.57393247220466 2133.6
    vertex 2055.4154119830823 285.57393247220466 2133.6
  endloop
endfacet
endsolid coathanger
