solid Controller
facet normal 0.0 0.0 -1.0
  outer loop
    vertex 400.0 300.0 0.0
    vertex 0.0 0.0 0.0
    vertex 0.0 300.0 0.0
  endloop
endfacet
facet normal 0.0 0.0 -1.0
  outer loop
    vertex 0.0 0.0 0.0
    vertex 400.0 300.0 0.0
    vertex 400.0 0.0 0.0
  endloop
endfacet
facet normal -0.0 -0.0 1.0
  outer loop
    vertex 0.0 0.0 50.0
    vertex 10.063643999957366 150.0 50.0
    vertex 0.0 300.0 50.0
  endloop
endfacet
facet normal -0.0 -0.0 1.0
  outer loop
    vertex 10.063643999957366 150.0 50.0
    vertex 0.0 0.0 50.0
    vertex 11.068832124429855 142.36483816947563 50.0
  endloop
endfacet
facet normal -0.0 -0.0 1.0
  outer loop
    vertex 11.068832124429855 142.36483816947563 50.0
    vertex 0.0 0.0 50.0
    vertex 14.015894588316431 135.25 50.0
  endloop
endfacet
facet normal -0.0 -0.0 1.0
  outer loop
    vertex 14.015894588316431 135.25 50.0
    vertex 0.0 0.0 50.0
    vertex 18.703993954954214 129.14034995499685 50.0
  endloop
endfacet
facet normal -0.0 -0.0 1.0
  outer loop
    vertex 18.703993954954214 129.14034995499685 50.0
    vertex 0.0 0.0 50.0
    vertex 24.81364399995737 124.45225058835905 50.0
  endloop
endfacet
facet normal -0.0 -0.0 1.0
  outer loop
    vertex 24.81364399995737 124.45225058835905 50.0
    vertex 0.0 0.0 50.0
    vertex 31.928482169433003 121.50518812447248 50.0
  endloop
endfacet
facet normal -0.0 -0.0 1.0
  outer loop
    vertex 31.928482169433003 121.50518812447248 50.0
    vertex 0.0 0.0 50.0
    vertex 400.0 0.0 50.0
  endloop
endfacet
facet normal -0.0 -0.0 1.0
  outer loop
    vertex 31.928482169433003 121.50518812447248 50.0
    vertex 400.0 0.0 50.0
    vertex 39.563643999957364 120.5 50.0
  endloop
endfacet
facet normal -0.0 -0.0 1.0
  outer loop
    vertex 39.563643999957364 120.5 50.0
    vertex 400.0 0.0 50.0
    vertex 47.198805830481724 121.50518812447248 50.0
  endloop
endfacet
facet normal -0.0 -0.0 1.0
  outer loop
    vertex 47.198805830481724 121.50518812447248 50.0
    vertex 400.0 0.0 50.0
    vertex 54.313643999957364 124.45225058835905 50.0
  endloop
endfacet
facet normal -0.0 -0.0 1.0
  outer loop
    vertex 54.313643999957364 124.45225058835905 50.0
    vertex 400.0 0.0 50.0
    vertex 60.423294044960514 129.14034995499685 50.0
  endloop
endfacet
facet normal -0.0 -0.0 1.0
  outer loop
    vertex 60.423294044960514 129.14034995499685 50.0
    vertex 400.0 0.0 50.0
    vertex 95.56773194483266 122.58066240163036 50.0
  endloop
endfacet
facet normal -0.0 -0.0 1.0
  outer loop
    vertex 60.423294044960514 129.14034995499685 50.0
    vertex 95.56773194483266 122.58066240163036 50.0
    vertex 65.1113934115983 135.25 50.0
  endloop
endfacet
facet normal -0.0 -0.0 1.0
  outer loop
    vertex 65.1113934115983 135.25 50.0
    vertex 95.56773194483266 122.58066240163036 50.0
    vertex 88.84189911818565 126.33156524386371 50.0
  endloop
endfacet
facet normal -0.0 -0.0 1.0
  outer loop
    vertex 65.1113934115983 135.25 50.0
    vertex 88.84189911818565 126.33156524386371 50.0
    vertex 68.05845587548488 142.36483816947563 50.0
  endloop
endfacet
facet normal -0.0 -0.0 1.0
  outer loop
    vertex 68.05845587548488 142.36483816947563 50.0
    vertex 88.84189911818565 126.33156524386371 50.0
    vertex 83.31604857952362 131.69543280078994 50.0
  endloop
endfacet
facet normal -0.0 -0.0 1.0
  outer loop
    vertex 68.05845587548488 142.36483816947563 50.0
    vertex 83.31604857952362 131.69543280078994 50.0
    vertex 69.06364399995736 150.0 50.0
  endloop
endfacet
facet normal -0.0 -0.0 1.0
  outer loop
    vertex 69.06364399995736 150.0 50.0
    vertex 83.31604857952362 131.69543280078994 50.0
    vertex 79.3667579111567 138.30672636261477 50.0
  endloop
endfacet
facet normal -0.0 -0.0 1.0
  outer loop
    vertex 69.06364399995736 150.0 50.0
    vertex 79.3667579111567 138.30672636261477 50.0
    vertex 77.26316474562259 145.71489719877903 50.0
  endloop
endfacet
facet normal -0.0 -0.0 1.0
  outer loop
    vertex 69.06364399995736 150.0 50.0
    vertex 77.26316474562259 145.71489719877903 50.0
    vertex 77.1486254808004 153.4150907093793 50.0
  endloop
endfacet
facet normal -0.0 -0.0 1.0
  outer loop
    vertex 77.1486254808004 153.4150907093793 50.0
    vertex 77.26316474562259 145.71489719877903 50.0
    vertex 77.1994244611916 150.0 50.0
  endloop
endfacet
facet normal -0.0 -0.0 1.0
  outer loop
    vertex 95.56773194483266 122.58066240163036 50.0
    vertex 400.0 0.0 50.0
    vertex 103.03519266729297 120.69834210412809 50.0
  endloop
endfacet
facet normal -0.0 -0.0 1.0
  outer loop
    vertex 103.03519266729297 120.69834210412809 50.0
    vertex 400.0 0.0 50.0
    vertex 110.73538617789323 120.81288136895027 50.0
  endloop
endfacet
facet normal -0.0 -0.0 1.0
  outer loop
    vertex 110.73538617789323 120.81288136895027 50.0
    vertex 400.0 0.0 50.0
    vertex 118.14355701405752 122.9164745344844 50.0
  endloop
endfacet
facet normal -0.0 -0.0 1.0
  outer loop
    vertex 118.14355701405752 122.9164745344844 50.0
    vertex 400.0 0.0 50.0
    vertex 124.75485057588233 126.86576520285134 50.0
  endloop
endfacet
facet normal -0.0 -0.0 1.0
  outer loop
    vertex 124.75485057588233 126.86576520285134 50.0
    vertex 400.0 0.0 50.0
    vertex 130.11871813280854 132.39161574151333 50.0
  endloop
endfacet
facet normal -0.0 -0.0 1.0
  outer loop
    vertex 130.11871813280854 132.39161574151333 50.0
    vertex 400.0 0.0 50.0
    vertex 161.10208258166105 124.45225058835905 50.0
  endloop
endfacet
facet normal -0.0 -0.0 1.0
  outer loop
    vertex 130.11871813280854 132.39161574151333 50.0
    vertex 161.10208258166105 124.45225058835905 50.0
    vertex 133.86962097504193 139.11744856816034 50.0
  endloop
endfacet
facet normal -0.0 -0.0 1.0
  outer loop
    vertex 133.86962097504193 139.11744856816034 50.0
    vertex 161.10208258166105 124.45225058835905 50.0
    vertex 154.9924325366579 129.14034995499685 50.0
  endloop
endfacet
facet normal -0.0 -0.0 1.0
  outer loop
    vertex 133.86962097504193 139.11744856816034 50.0
    vertex 154.9924325366579 129.14034995499685 50.0
    vertex 135.75194127254417 146.58490929062066 50.0
  endloop
endfacet
facet normal -0.0 -0.0 1.0
  outer loop
    vertex 135.75194127254417 146.58490929062066 50.0
    vertex 154.9924325366579 129.14034995499685 50.0
    vertex 150.3043331700201 135.25 50.0
  endloop
endfacet
facet normal -0.0 -0.0 1.0
  outer loop
    vertex 135.75194127254417 146.58490929062066 50.0
    vertex 150.3043331700201 135.25 50.0
    vertex 147.35727070613353 142.36483816947563 50.0
  endloop
endfacet
facet normal -0.0 -0.0 1.0
  outer loop
    vertex 135.75194127254417 146.58490929062066 50.0
    vertex 147.35727070613353 142.36483816947563 50.0
    vertex 146.35208258166105 150.0 50.0
  endloop
endfacet
facet normal -0.0 -0.0 1.0
  outer loop
    vertex 161.10208258166105 124.45225058835905 50.0
    vertex 400.0 0.0 50.0
    vertex 168.21692075113668 121.50518812447247 50.0
  endloop
endfacet
facet normal -0.0 -0.0 1.0
  outer loop
    vertex 168.21692075113668 121.50518812447247 50.0
    vertex 400.0 0.0 50.0
    vertex 175.85208258166105 120.49999999999999 50.0
  endloop
endfacet
facet normal -0.0 -0.0 1.0
  outer loop
    vertex 175.85208258166105 120.49999999999999 50.0
    vertex 400.0 0.0 50.0
    vertex 183.48724441218542 121.50518812447247 50.0
  endloop
endfacet
facet normal -0.0 -0.0 1.0
  outer loop
    vertex 183.48724441218542 121.50518812447247 50.0
    vertex 400.0 0.0 50.0
    vertex 190.60208258166105 124.45225058835905 50.0
  endloop
endfacet
facet normal -0.0 -0.0 1.0
  outer loop
    vertex 190.60208258166105 124.45225058835905 50.0
    vertex 400.0 0.0 50.0
    vertex 196.7117326266642 129.14034995499685 50.0
  endloop
endfacet
facet normal -0.0 -0.0 1.0
  outer loop
    vertex 196.7117326266642 129.14034995499685 50.0
    vertex 400.0 0.0 50.0
    vertex 201.399831993302 135.25 50.0
  endloop
endfacet
facet normal -0.0 -0.0 1.0
  outer loop
    vertex 201.399831993302 135.25 50.0
    vertex 400.0 0.0 50.0
    vertex 228.91439713834956 124.45225058835905 50.0
  endloop
endfacet
facet normal -0.0 -0.0 1.0
  outer loop
    vertex 201.399831993302 135.25 50.0
    vertex 228.91439713834956 124.45225058835905 50.0
    vertex 204.34689445718857 142.36483816947563 50.0
  endloop
endfacet
facet normal -0.0 -0.0 1.0
  outer loop
    vertex 204.34689445718857 142.36483816947563 50.0
    vertex 228.91439713834956 124.45225058835905 50.0
    vertex 222.8047470933464 129.14034995499682 50.0
  endloop
endfacet
facet normal -0.0 -0.0 1.0
  outer loop
    vertex 204.34689445718857 142.36483816947563 50.0
    vertex 222.8047470933464 129.14034995499682 50.0
    vertex 205.35208258166108 150.0 50.0
  endloop
endfacet
facet normal -0.0 -0.0 1.0
  outer loop
    vertex 205.35208258166108 150.0 50.0
    vertex 222.8047470933464 129.14034995499682 50.0
    vertex 218.1166477267086 135.24999999999997 50.0
  endloop
endfacet
facet normal -0.0 -0.0 1.0
  outer loop
    vertex 205.35208258166108 150.0 50.0
    vertex 218.1166477267086 135.24999999999997 50.0
    vertex 215.169585262822 142.3648381694756 50.0
  endloop
endfacet
facet normal -0.0 -0.0 1.0
  outer loop
    vertex 205.35208258166108 150.0 50.0
    vertex 215.169585262822 142.3648381694756 50.0
    vertex 214.16439713834953 150.0 50.0
  endloop
endfacet
facet normal -0.0 -0.0 1.0
  outer loop
    vertex 228.91439713834956 124.45225058835905 50.0
    vertex 400.0 0.0 50.0
    vertex 236.0292353078252 121.50518812447247 50.0
  endloop
endfacet
facet normal -0.0 -0.0 1.0
  outer loop
    vertex 236.0292353078252 121.50518812447247 50.0
    vertex 400.0 0.0 50.0
    vertex 243.66439713834956 120.49999999999999 50.0
  endloop
endfacet
facet normal -0.0 -0.0 1.0
  outer loop
    vertex 243.66439713834956 120.49999999999999 50.0
    vertex 400.0 0.0 50.0
    vertex 251.29955896887395 121.50518812447247 50.0
  endloop
endfacet
facet normal -0.0 -0.0 1.0
  outer loop
    vertex 251.29955896887395 121.50518812447247 50.0
    vertex 400.0 0.0 50.0
    vertex 258.41439713834956 124.45225058835905 50.0
  endloop
endfacet
facet normal -0.0 -0.0 1.0
  outer loop
    vertex 258.41439713834956 124.45225058835905 50.0
    vertex 400.0 0.0 50.0
    vertex 264.5240471833527 129.14034995499685 50.0
  endloop
endfacet
facet normal -0.0 -0.0 1.0
  outer loop
    vertex 264.5240471833527 129.14034995499685 50.0
    vertex 400.0 0.0 50.0
    vertex 269.2121465499905 135.25 50.0
  endloop
endfacet
facet normal -0.0 -0.0 1.0
  outer loop
    vertex 269.2121465499905 135.25 50.0
    vertex 400.0 0.0 50.0
    vertex 272.1592090138771 142.36483816947563 50.0
  endloop
endfacet
facet normal -0.0 -0.0 1.0
  outer loop
    vertex 272.1592090138771 142.36483816947563 50.0
    vertex 400.0 0.0 50.0
    vertex 273.16439713834956 150.0 50.0
  endloop
endfacet
facet normal -0.0 -0.0 1.0
  outer loop
    vertex 273.16439713834956 150.0 50.0
    vertex 400.0 0.0 50.0
    vertex 318.37673031303103 112.36515488529018 50.0
  endloop
endfacet
facet normal -0.0 -0.0 1.0
  outer loop
    vertex 318.37673031303103 112.36515488529018 50.0
    vertex 400.0 0.0 50.0
    vertex 380.37673031303103 112.36515488529018 50.0
  endloop
endfacet
facet normal -0.0 -0.0 1.0
  outer loop
    vertex 380.37673031303103 112.36515488529018 50.0
    vertex 400.0 0.0 50.0
    vertex 380.37673031303103 187.3651548852902 50.0
  endloop
endfacet
facet normal -0.0 -0.0 1.0
  outer loop
    vertex 0.0 300.0 50.0
    vertex 31.92848216943298 178.4948118755275 50.0
    vertex 400.0 300.0 50.0
  endloop
endfacet
facet normal -0.0 -0.0 1.0
  outer loop
    vertex 31.92848216943298 178.4948118755275 50.0
    vertex 0.0 300.0 50.0
    vertex 24.81364399995735 175.54774941164092 50.0
  endloop
endfacet
facet normal -0.0 -0.0 1.0
  outer loop
    vertex 24.81364399995735 175.54774941164092 50.0
    vertex 0.0 300.0 50.0
    vertex 18.7039939549542 170.85965004500312 50.0
  endloop
endfacet
facet normal -0.0 -0.0 1.0
  outer loop
    vertex 18.7039939549542 170.85965004500312 50.0
    vertex 0.0 300.0 50.0
    vertex 14.01589458831642 164.74999999999997 50.0
  endloop
endfacet
facet normal -0.0 -0.0 1.0
  outer loop
    vertex 14.01589458831642 164.74999999999997 50.0
    vertex 0.0 300.0 50.0
    vertex 11.06883212442985 157.63516183052434 50.0
  endloop
endfacet
facet normal -0.0 -0.0 1.0
  outer loop
    vertex 11.06883212442985 157.63516183052434 50.0
    vertex 0.0 300.0 50.0
    vertex 10.063643999957366 150.0 50.0
  endloop
endfacet
facet normal -0.0 -0.0 1.0
  outer loop
    vertex 400.0 300.0 50.0
    vertex 31.92848216943298 178.4948118755275 50.0
    vertex 39.56364399995736 179.5 50.0
  endloop
endfacet
facet normal -0.0 -0.0 1.0
  outer loop
    vertex 400.0 300.0 50.0
    vertex 39.56364399995736 179.5 50.0
    vertex 47.19880583048171 178.4948118755275 50.0
  endloop
endfacet
facet normal -0.0 -0.0 1.0
  outer loop
    vertex 400.0 300.0 50.0
    vertex 47.19880583048171 178.4948118755275 50.0
    vertex 54.31364399995734 175.54774941164095 50.0
  endloop
endfacet
facet normal -0.0 -0.0 1.0
  outer loop
    vertex 400.0 300.0 50.0
    vertex 54.31364399995734 175.54774941164095 50.0
    vertex 60.42329404496051 170.85965004500315 50.0
  endloop
endfacet
facet normal -0.0 -0.0 1.0
  outer loop
    vertex 400.0 300.0 50.0
    vertex 60.42329404496051 170.85965004500315 50.0
    vertex 94.75700973928704 177.0835254655156 50.0
  endloop
endfacet
facet normal -0.0 -0.0 1.0
  outer loop
    vertex 94.75700973928704 177.0835254655156 50.0
    vertex 60.42329404496051 170.85965004500315 50.0
    vertex 65.11139341159829 164.75 50.0
  endloop
endfacet
facet normal -0.0 -0.0 1.0
  outer loop
    vertex 94.75700973928704 177.0835254655156 50.0
    vertex 65.11139341159829 164.75 50.0
    vertex 88.14571617746223 173.13423479714865 50.0
  endloop
endfacet
facet normal -0.0 -0.0 1.0
  outer loop
    vertex 88.14571617746223 173.13423479714865 50.0
    vertex 65.11139341159829 164.75 50.0
    vertex 68.05845587548488 157.6351618305244 50.0
  endloop
endfacet
facet normal -0.0 -0.0 1.0
  outer loop
    vertex 88.14571617746223 173.13423479714865 50.0
    vertex 68.05845587548488 157.6351618305244 50.0
    vertex 82.781848620536 167.60838425848664 50.0
  endloop
endfacet
facet normal -0.0 -0.0 1.0
  outer loop
    vertex 82.781848620536 167.60838425848664 50.0
    vertex 68.05845587548488 157.6351618305244 50.0
    vertex 69.06364399995736 150.0 50.0
  endloop
endfacet
facet normal -0.0 -0.0 1.0
  outer loop
    vertex 82.781848620536 167.60838425848664 50.0
    vertex 69.06364399995736 150.0 50.0
    vertex 79.03094577830267 160.88255143183963 50.0
  endloop
endfacet
facet normal -0.0 -0.0 1.0
  outer loop
    vertex 79.03094577830267 160.88255143183963 50.0
    vertex 69.06364399995736 150.0 50.0
    vertex 77.1486254808004 153.4150907093793 50.0
  endloop
endfacet
facet normal -0.0 -0.0 1.0
  outer loop
    vertex 400.0 300.0 50.0
    vertex 94.75700973928704 177.0835254655156 50.0
    vertex 102.16518057545133 179.1871186310497 50.0
  endloop
endfacet
facet normal -0.0 -0.0 1.0
  outer loop
    vertex 400.0 300.0 50.0
    vertex 102.16518057545133 179.1871186310497 50.0
    vertex 109.86537408605163 179.3016578958719 50.0
  endloop
endfacet
facet normal -0.0 -0.0 1.0
  outer loop
    vertex 400.0 300.0 50.0
    vertex 109.86537408605163 179.3016578958719 50.0
    vertex 117.33283480851195 177.4193375983696 50.0
  endloop
endfacet
facet normal -0.0 -0.0 1.0
  outer loop
    vertex 400.0 300.0 50.0
    vertex 117.33283480851195 177.4193375983696 50.0
    vertex 124.05866763515895 173.66843475613626 50.0
  endloop
endfacet
facet normal -0.0 -0.0 1.0
  outer loop
    vertex 400.0 300.0 50.0
    vertex 124.05866763515895 173.66843475613626 50.0
    vertex 129.58451817382095 168.30456719921006 50.0
  endloop
endfacet
facet normal -0.0 -0.0 1.0
  outer loop
    vertex 400.0 300.0 50.0
    vertex 129.58451817382095 168.30456719921006 50.0
    vertex 133.5338088421879 161.69327363738523 50.0
  endloop
endfacet
facet normal -0.0 -0.0 1.0
  outer loop
    vertex 400.0 300.0 50.0
    vertex 133.5338088421879 161.69327363738523 50.0
    vertex 161.10208258166102 175.54774941164095 50.0
  endloop
endfacet
facet normal -0.0 -0.0 1.0
  outer loop
    vertex 161.10208258166102 175.54774941164095 50.0
    vertex 133.5338088421879 161.69327363738523 50.0
    vertex 154.99243253665787 170.85965004500315 50.0
  endloop
endfacet
facet normal -0.0 -0.0 1.0
  outer loop
    vertex 154.99243253665787 170.85965004500315 50.0
    vertex 133.5338088421879 161.69327363738523 50.0
    vertex 135.637402007722 154.28510280122094 50.0
  endloop
endfacet
facet normal -0.0 -0.0 1.0
  outer loop
    vertex 154.99243253665787 170.85965004500315 50.0
    vertex 135.637402007722 154.28510280122094 50.0
    vertex 135.701142292153 150.0 50.0
  endloop
endfacet
facet normal -0.0 -0.0 1.0
  outer loop
    vertex 154.99243253665787 170.85965004500315 50.0
    vertex 135.701142292153 150.0 50.0
    vertex 135.75194127254417 146.58490929062066 50.0
  endloop
endfacet
facet normal -0.0 -0.0 1.0
  outer loop
    vertex 154.99243253665787 170.85965004500315 50.0
    vertex 135.75194127254417 146.58490929062066 50.0
    vertex 150.3043331700201 164.75 50.0
  endloop
endfacet
facet normal -0.0 -0.0 1.0
  outer loop
    vertex 150.3043331700201 164.75 50.0
    vertex 135.75194127254417 146.58490929062066 50.0
    vertex 147.35727070613353 157.63516183052434 50.0
  endloop
endfacet
facet normal -0.0 -0.0 1.0
  outer loop
    vertex 147.35727070613353 157.63516183052434 50.0
    vertex 135.75194127254417 146.58490929062066 50.0
    vertex 146.35208258166105 150.0 50.0
  endloop
endfacet
facet normal -0.0 -0.0 1.0
  outer loop
    vertex 400.0 300.0 50.0
    vertex 161.10208258166102 175.54774941164095 50.0
    vertex 168.21692075113666 178.49481187552752 50.0
  endloop
endfacet
facet normal -0.0 -0.0 1.0
  outer loop
    vertex 400.0 300.0 50.0
    vertex 168.21692075113666 178.49481187552752 50.0
    vertex 175.85208258166105 179.5 50.0
  endloop
endfacet
facet normal -0.0 -0.0 1.0
  outer loop
    vertex 400.0 300.0 50.0
    vertex 175.85208258166105 179.5 50.0
    vertex 183.4872444121854 178.49481187552752 50.0
  endloop
endfacet
facet normal -0.0 -0.0 1.0
  outer loop
    vertex 400.0 300.0 50.0
    vertex 183.4872444121854 178.49481187552752 50.0
    vertex 190.60208258166102 175.54774941164098 50.0
  endloop
endfacet
facet normal -0.0 -0.0 1.0
  outer loop
    vertex 400.0 300.0 50.0
    vertex 190.60208258166102 175.54774941164098 50.0
    vertex 196.7117326266642 170.85965004500315 50.0
  endloop
endfacet
facet normal -0.0 -0.0 1.0
  outer loop
    vertex 400.0 300.0 50.0
    vertex 196.7117326266642 170.85965004500315 50.0
    vertex 201.399831993302 164.75000000000003 50.0
  endloop
endfacet
facet normal -0.0 -0.0 1.0
  outer loop
    vertex 400.0 300.0 50.0
    vertex 201.399831993302 164.75000000000003 50.0
    vertex 228.91439713834953 175.54774941164095 50.0
  endloop
endfacet
facet normal -0.0 -0.0 1.0
  outer loop
    vertex 228.91439713834953 175.54774941164095 50.0
    vertex 201.399831993302 164.75000000000003 50.0
    vertex 204.34689445718857 157.6351618305244 50.0
  endloop
endfacet
facet normal -0.0 -0.0 1.0
  outer loop
    vertex 228.91439713834953 175.54774941164095 50.0
    vertex 204.34689445718857 157.6351618305244 50.0
    vertex 222.80474709334638 170.85965004500315 50.0
  endloop
endfacet
facet normal -0.0 -0.0 1.0
  outer loop
    vertex 222.80474709334638 170.85965004500315 50.0
    vertex 204.34689445718857 157.6351618305244 50.0
    vertex 205.35208258166108 150.0 50.0
  endloop
endfacet
facet normal -0.0 -0.0 1.0
  outer loop
    vertex 222.80474709334638 170.85965004500315 50.0
    vertex 205.35208258166108 150.0 50.0
    vertex 218.1166477267086 164.74999999999997 50.0
  endloop
endfacet
facet normal -0.0 -0.0 1.0
  outer loop
    vertex 218.1166477267086 164.74999999999997 50.0
    vertex 205.35208258166108 150.0 50.0
    vertex 215.169585262822 157.63516183052434 50.0
  endloop
endfacet
facet normal -0.0 -0.0 1.0
  outer loop
    vertex 215.169585262822 157.63516183052434 50.0
    vertex 205.35208258166108 150.0 50.0
    vertex 214.16439713834953 150.0 50.0
  endloop
endfacet
facet normal -0.0 -0.0 1.0
  outer loop
    vertex 400.0 300.0 50.0
    vertex 228.91439713834953 175.54774941164095 50.0
    vertex 236.02923530782516 178.49481187552752 50.0
  endloop
endfacet
facet normal -0.0 -0.0 1.0
  outer loop
    vertex 400.0 300.0 50.0
    vertex 236.02923530782516 178.49481187552752 50.0
    vertex 243.66439713834956 179.5 50.0
  endloop
endfacet
facet normal -0.0 -0.0 1.0
  outer loop
    vertex 400.0 300.0 50.0
    vertex 243.66439713834956 179.5 50.0
    vertex 251.2995589688739 178.49481187552752 50.0
  endloop
endfacet
facet normal -0.0 -0.0 1.0
  outer loop
    vertex 400.0 300.0 50.0
    vertex 251.2995589688739 178.49481187552752 50.0
    vertex 258.41439713834956 175.54774941164095 50.0
  endloop
endfacet
facet normal -0.0 -0.0 1.0
  outer loop
    vertex 400.0 300.0 50.0
    vertex 258.41439713834956 175.54774941164095 50.0
    vertex 264.5240471833527 170.85965004500315 50.0
  endloop
endfacet
facet normal -0.0 -0.0 1.0
  outer loop
    vertex 400.0 300.0 50.0
    vertex 264.5240471833527 170.85965004500315 50.0
    vertex 269.2121465499905 164.75 50.0
  endloop
endfacet
facet normal -0.0 -0.0 1.0
  outer loop
    vertex 400.0 300.0 50.0
    vertex 269.2121465499905 164.75 50.0
    vertex 272.1592090138771 157.63516183052437 50.0
  endloop
endfacet
facet normal -0.0 -0.0 1.0
  outer loop
    vertex 400.0 300.0 50.0
    vertex 272.1592090138771 157.63516183052437 50.0
    vertex 273.16439713834956 150.0 50.0
  endloop
endfacet
facet normal -0.0 -0.0 1.0
  outer loop
    vertex 400.0 300.0 50.0
    vertex 273.16439713834956 150.0 50.0
    vertex 318.37673031303103 187.3651548852902 50.0
  endloop
endfacet
facet normal -0.0 -0.0 1.0
  outer loop
    vertex 318.37673031303103 187.3651548852902 50.0
    vertex 273.16439713834956 150.0 50.0
    vertex 318.37673031303103 112.36515488529018 50.0
  endloop
endfacet
facet normal -0.0 -0.0 1.0
  outer loop
    vertex 400.0 300.0 50.0
    vertex 318.37673031303103 187.3651548852902 50.0
    vertex 380.37673031303103 187.3651548852902 50.0
  endloop
endfacet
facet normal -0.0 -0.0 1.0
  outer loop
    vertex 400.0 300.0 50.0
    vertex 380.37673031303103 187.3651548852902 50.0
    vertex 400.0 0.0 50.0
  endloop
endfacet
facet normal 1.0 0.0 0.0
  outer loop
    vertex 400.0 300.0 0.0
    vertex 400.0 0.0 50.0
    vertex 400.0 0.0 0.0
  endloop
endfacet
facet normal 1.0 0.0 0.0
  outer loop
    vertex 400.0 0.0 50.0
    vertex 400.0 300.0 0.0
    vertex 400.0 300.0 50.0
  endloop
endfacet
facet normal -0.0 -1.0 -0.0
  outer loop
    vertex 400.0 0.0 50.0
    vertex 0.0 0.0 0.0
    vertex 400.0 0.0 0.0
  endloop
endfacet
facet normal -0.0 -1.0 -0.0
  outer loop
    vertex 0.0 0.0 0.0
    vertex 400.0 0.0 50.0
    vertex 0.0 0.0 50.0
  endloop
endfacet
facet normal -1.0 0.0 0.0
  outer loop
    vertex 0.0 300.0 50.0
    vertex 0.0 0.0 0.0
    vertex 0.0 0.0 50.0
  endloop
endfacet
facet normal -1.0 0.0 0.0
  outer loop
    vertex 0.0 0.0 0.0
    vertex 0.0 300.0 50.0
    vertex 0.0 300.0 0.0
  endloop
endfacet
facet normal -0.0 1.0 0.0
  outer loop
    vertex 0.0 300.0 50.0
    vertex 400.0 300.0 0.0
    vertex 0.0 300.0 0.0
  endloop
endfacet
facet normal -0.0 1.0 0.0
  outer loop
    vertex 400.0 300.0 0.0
    vertex 0.0 300.0 50.0
    vertex 400.0 300.0 50.0
  endloop
endfacet
facet normal 0.0 0.0 1.0
  outer loop
    vertex 380.37673031303103 112.36515488529018 15.999999999999998
    vertex 318.37673031303103 187.3651548852902 15.999999999999998
    vertex 318.37673031303103 112.36515488529018 15.999999999999998
  endloop
endfacet
facet normal 0.0 0.0 1.0
  outer loop
    vertex 318.37673031303103 187.3651548852902 15.999999999999998
    vertex 380.37673031303103 112.36515488529018 15.999999999999998
    vertex 380.37673031303103 187.3651548852902 15.999999999999998
  endloop
endfacet
facet normal -0.0 -1.0 -0.0
  outer loop
    vertex 380.37673031303103 187.3651548852902 50.0
    vertex 318.37673031303103 187.3651548852902 15.999999999999998
    vertex 380.37673031303103 187.3651548852902 15.999999999999998
  endloop
endfacet
facet normal -0.0 -1.0 -0.0
  outer loop
    vertex 318.37673031303103 187.3651548852902 15.999999999999998
    vertex 380.37673031303103 187.3651548852902 50.0
    vertex 318.37673031303103 187.3651548852902 50.0
  endloop
endfacet
facet normal 1.0 0.0 0.0
  outer loop
    vertex 318.37673031303103 187.3651548852902 15.999999999999998
    vertex 318.37673031303103 112.36515488529018 50.0
    vertex 318.37673031303103 112.36515488529018 15.999999999999998
  endloop
endfacet
facet normal 1.0 0.0 0.0
  outer loop
    vertex 318.37673031303103 112.36515488529018 50.0
    vertex 318.37673031303103 187.3651548852902 15.999999999999998
    vertex 318.37673031303103 187.3651548852902 50.0
  endloop
endfacet
facet normal -0.0 1.0 -0.0
  outer loop
    vertex 318.37673031303103 112.36515488529018 50.0
    vertex 380.37673031303103 112.36515488529018 15.999999999999998
    vertex 318.37673031303103 112.36515488529018 15.999999999999998
  endloop
endfacet
facet normal -0.0 1.0 -0.0
  outer loop
    vertex 380.37673031303103 112.36515488529018 15.999999999999998
    vertex 318.37673031303103 112.36515488529018 50.0
    vertex 380.37673031303103 112.36515488529018 50.0
  endloop
endfacet
facet normal -1.0 0.0 -0.0
  outer loop
    vertex 380.37673031303103 187.3651548852902 50.0
    vertex 380.37673031303103 112.36515488529018 15.999999999999998
    vertex 380.37673031303103 112.36515488529018 50.0
  endloop
endfacet
facet normal -1.0 0.0 -0.0
  outer loop
    vertex 380.37673031303103 112.36515488529018 15.999999999999998
    vertex 380.37673031303103 187.3651548852902 50.0
    vertex 380.37673031303103 187.3651548852902 15.999999999999998
  endloop
endfacet
facet normal 0.0 0.0 1.0
  outer loop
    vertex 215.169585262822 142.3648381694756 18.3
    vertex 215.169585262822 157.63516183052434 18.3
    vertex 214.16439713834953 150.0 18.3
  endloop
endfacet
facet normal 0.0 0.0 1.0
  outer loop
    vertex 215.169585262822 157.63516183052434 18.3
    vertex 215.169585262822 142.3648381694756 18.3
    vertex 218.1166477267086 135.24999999999997 18.3
  endloop
endfacet
facet normal 0.0 0.0 1.0
  outer loop
    vertex 215.169585262822 157.63516183052434 18.3
    vertex 218.1166477267086 135.24999999999997 18.3
    vertex 218.1166477267086 164.74999999999997 18.3
  endloop
endfacet
facet normal 0.0 0.0 1.0
  outer loop
    vertex 218.1166477267086 164.74999999999997 18.3
    vertex 218.1166477267086 135.24999999999997 18.3
    vertex 222.8047470933464 129.14034995499682 18.3
  endloop
endfacet
facet normal 0.0 0.0 1.0
  outer loop
    vertex 218.1166477267086 164.74999999999997 18.3
    vertex 222.8047470933464 129.14034995499682 18.3
    vertex 222.80474709334638 170.85965004500315 18.3
  endloop
endfacet
facet normal 0.0 0.0 1.0
  outer loop
    vertex 222.80474709334638 170.85965004500315 18.3
    vertex 222.8047470933464 129.14034995499682 18.3
    vertex 228.91439713834953 175.54774941164095 18.3
  endloop
endfacet
facet normal 0.0 0.0 1.0
  outer loop
    vertex 228.91439713834953 175.54774941164095 18.3
    vertex 222.8047470933464 129.14034995499682 18.3
    vertex 228.91439713834956 124.45225058835905 18.3
  endloop
endfacet
facet normal 0.0 0.0 1.0
  outer loop
    vertex 228.91439713834953 175.54774941164095 18.3
    vertex 228.91439713834956 124.45225058835905 18.3
    vertex 236.02923530782516 178.49481187552752 18.3
  endloop
endfacet
facet normal 0.0 0.0 1.0
  outer loop
    vertex 236.02923530782516 178.49481187552752 18.3
    vertex 228.91439713834956 124.45225058835905 18.3
    vertex 236.0292353078252 121.50518812447247 18.3
  endloop
endfacet
facet normal 0.0 0.0 1.0
  outer loop
    vertex 236.02923530782516 178.49481187552752 18.3
    vertex 236.0292353078252 121.50518812447247 18.3
    vertex 243.66439713834956 179.5 18.3
  endloop
endfacet
facet normal 0.0 0.0 1.0
  outer loop
    vertex 243.66439713834956 179.5 18.3
    vertex 236.0292353078252 121.50518812447247 18.3
    vertex 243.66439713834956 120.49999999999999 18.3
  endloop
endfacet
facet normal 0.0 0.0 1.0
  outer loop
    vertex 243.66439713834956 179.5 18.3
    vertex 243.66439713834956 120.49999999999999 18.3
    vertex 251.29955896887395 121.50518812447247 18.3
  endloop
endfacet
facet normal 0.0 0.0 1.0
  outer loop
    vertex 243.66439713834956 179.5 18.3
    vertex 251.29955896887395 121.50518812447247 18.3
    vertex 251.2995589688739 178.49481187552752 18.3
  endloop
endfacet
facet normal 0.0 0.0 1.0
  outer loop
    vertex 251.2995589688739 178.49481187552752 18.3
    vertex 251.29955896887395 121.50518812447247 18.3
    vertex 258.41439713834956 175.54774941164095 18.3
  endloop
endfacet
facet normal 0.0 0.0 1.0
  outer loop
    vertex 258.41439713834956 175.54774941164095 18.3
    vertex 251.29955896887395 121.50518812447247 18.3
    vertex 258.41439713834956 124.45225058835905 18.3
  endloop
endfacet
facet normal 0.0 0.0 1.0
  outer loop
    vertex 258.41439713834956 175.54774941164095 18.3
    vertex 258.41439713834956 124.45225058835905 18.3
    vertex 264.5240471833527 170.85965004500315 18.3
  endloop
endfacet
facet normal 0.0 0.0 1.0
  outer loop
    vertex 264.5240471833527 170.85965004500315 18.3
    vertex 258.41439713834956 124.45225058835905 18.3
    vertex 264.5240471833527 129.14034995499685 18.3
  endloop
endfacet
facet normal 0.0 0.0 1.0
  outer loop
    vertex 264.5240471833527 170.85965004500315 18.3
    vertex 264.5240471833527 129.14034995499685 18.3
    vertex 269.2121465499905 135.25 18.3
  endloop
endfacet
facet normal 0.0 0.0 1.0
  outer loop
    vertex 264.5240471833527 170.85965004500315 18.3
    vertex 269.2121465499905 135.25 18.3
    vertex 269.2121465499905 164.75 18.3
  endloop
endfacet
facet normal 0.0 0.0 1.0
  outer loop
    vertex 269.2121465499905 164.75 18.3
    vertex 269.2121465499905 135.25 18.3
    vertex 272.1592090138771 142.36483816947563 18.3
  endloop
endfacet
facet normal 0.0 0.0 1.0
  outer loop
    vertex 269.2121465499905 164.75 18.3
    vertex 272.1592090138771 142.36483816947563 18.3
    vertex 272.1592090138771 157.63516183052437 18.3
  endloop
endfacet
facet normal 0.0 0.0 1.0
  outer loop
    vertex 272.1592090138771 157.63516183052437 18.3
    vertex 272.1592090138771 142.36483816947563 18.3
    vertex 273.16439713834956 150.0 18.3
  endloop
endfacet
facet normal 0.9914448613738104 -0.1305261922200516 -0.0
  outer loop
    vertex 215.169585262822 157.63516183052434 18.3
    vertex 214.16439713834953 150.0 50.0
    vertex 214.16439713834953 150.0 18.3
  endloop
endfacet
facet normal 0.9914448613738104 -0.1305261922200516 -0.0
  outer loop
    vertex 214.16439713834953 150.0 50.0
    vertex 215.169585262822 157.63516183052434 18.3
    vertex 215.169585262822 157.63516183052434 50.0
  endloop
endfacet
facet normal 0.9914448613738105 0.13052619222005085 0.0
  outer loop
    vertex 214.16439713834953 150.0 18.3
    vertex 215.169585262822 142.3648381694756 50.0
    vertex 215.169585262822 142.3648381694756 18.3
  endloop
endfacet
facet normal 0.9914448613738105 0.13052619222005085 0.0
  outer loop
    vertex 215.169585262822 142.3648381694756 50.0
    vertex 214.16439713834953 150.0 18.3
    vertex 214.16439713834953 150.0 50.0
  endloop
endfacet
facet normal 0.9238795325112864 0.3826834323650908 0.0
  outer loop
    vertex 215.169585262822 142.3648381694756 18.3
    vertex 218.1166477267086 135.24999999999997 50.0
    vertex 218.1166477267086 135.24999999999997 18.3
  endloop
endfacet
facet normal 0.9238795325112864 0.3826834323650908 0.0
  outer loop
    vertex 218.1166477267086 135.24999999999997 50.0
    vertex 215.169585262822 142.3648381694756 18.3
    vertex 215.169585262822 142.3648381694756 50.0
  endloop
endfacet
facet normal 0.7933533402912337 0.6087614290087224 0.0
  outer loop
    vertex 218.1166477267086 135.24999999999997 18.3
    vertex 222.8047470933464 129.14034995499682 50.0
    vertex 222.8047470933464 129.14034995499682 18.3
  endloop
endfacet
facet normal 0.7933533402912337 0.6087614290087224 0.0
  outer loop
    vertex 222.8047470933464 129.14034995499682 50.0
    vertex 218.1166477267086 135.24999999999997 18.3
    vertex 218.1166477267086 135.24999999999997 50.0
  endloop
endfacet
facet normal 0.6087614290087189 0.7933533402912367 0.0
  outer loop
    vertex 222.8047470933464 129.14034995499682 50.0
    vertex 228.91439713834956 124.45225058835905 18.3
    vertex 222.8047470933464 129.14034995499682 18.3
  endloop
endfacet
facet normal 0.6087614290087189 0.7933533402912367 0.0
  outer loop
    vertex 228.91439713834956 124.45225058835905 18.3
    vertex 222.8047470933464 129.14034995499682 50.0
    vertex 228.91439713834956 124.45225058835905 50.0
  endloop
endfacet
facet normal 0.3826834323650908 0.9238795325112864 0.0
  outer loop
    vertex 228.91439713834956 124.45225058835905 50.0
    vertex 236.0292353078252 121.50518812447247 18.3
    vertex 228.91439713834956 124.45225058835905 18.3
  endloop
endfacet
facet normal 0.3826834323650908 0.9238795325112864 0.0
  outer loop
    vertex 236.0292353078252 121.50518812447247 18.3
    vertex 228.91439713834956 124.45225058835905 50.0
    vertex 236.0292353078252 121.50518812447247 50.0
  endloop
endfacet
facet normal 0.1305261922200516 0.9914448613738104 0.0
  outer loop
    vertex 236.0292353078252 121.50518812447247 50.0
    vertex 243.66439713834956 120.49999999999999 18.3
    vertex 236.0292353078252 121.50518812447247 18.3
  endloop
endfacet
facet normal 0.1305261922200516 0.9914448613738104 0.0
  outer loop
    vertex 243.66439713834956 120.49999999999999 18.3
    vertex 236.0292353078252 121.50518812447247 50.0
    vertex 243.66439713834956 120.49999999999999 50.0
  endloop
endfacet
facet normal -0.13052619222005085 0.9914448613738105 -0.0
  outer loop
    vertex 243.66439713834956 120.49999999999999 50.0
    vertex 251.29955896887395 121.50518812447247 18.3
    vertex 243.66439713834956 120.49999999999999 18.3
  endloop
endfacet
facet normal -0.13052619222005085 0.9914448613738105 -0.0
  outer loop
    vertex 251.29955896887395 121.50518812447247 18.3
    vertex 243.66439713834956 120.49999999999999 50.0
    vertex 251.29955896887395 121.50518812447247 50.0
  endloop
endfacet
facet normal -0.3826834323650908 0.9238795325112864 -0.0
  outer loop
    vertex 251.29955896887395 121.50518812447247 50.0
    vertex 258.41439713834956 124.45225058835905 18.3
    vertex 251.29955896887395 121.50518812447247 18.3
  endloop
endfacet
facet normal -0.3826834323650908 0.9238795325112864 -0.0
  outer loop
    vertex 258.41439713834956 124.45225058835905 18.3
    vertex 251.29955896887395 121.50518812447247 50.0
    vertex 258.41439713834956 124.45225058835905 50.0
  endloop
endfacet
facet normal -0.6087614290087207 0.7933533402912353 -0.0
  outer loop
    vertex 258.41439713834956 124.45225058835905 50.0
    vertex 264.5240471833527 129.14034995499685 18.3
    vertex 258.41439713834956 124.45225058835905 18.3
  endloop
endfacet
facet normal -0.6087614290087207 0.7933533402912353 -0.0
  outer loop
    vertex 264.5240471833527 129.14034995499685 18.3
    vertex 258.41439713834956 124.45225058835905 50.0
    vertex 264.5240471833527 129.14034995499685 50.0
  endloop
endfacet
facet normal -0.7933533402912367 0.6087614290087189 -0.0
  outer loop
    vertex 269.2121465499905 135.25 50.0
    vertex 264.5240471833527 129.14034995499685 18.3
    vertex 264.5240471833527 129.14034995499685 50.0
  endloop
endfacet
facet normal -0.7933533402912367 0.6087614290087189 -0.0
  outer loop
    vertex 264.5240471833527 129.14034995499685 18.3
    vertex 269.2121465499905 135.25 50.0
    vertex 269.2121465499905 135.25 18.3
  endloop
endfacet
facet normal -0.9238795325112864 0.3826834323650908 -0.0
  outer loop
    vertex 272.1592090138771 142.36483816947563 50.0
    vertex 269.2121465499905 135.25 18.3
    vertex 269.2121465499905 135.25 50.0
  endloop
endfacet
facet normal -0.9238795325112864 0.3826834323650908 -0.0
  outer loop
    vertex 269.2121465499905 135.25 18.3
    vertex 272.1592090138771 142.36483816947563 50.0
    vertex 272.1592090138771 142.36483816947563 18.3
  endloop
endfacet
facet normal -0.9914448613738106 0.13052619222005127 -0.0
  outer loop
    vertex 273.16439713834956 150.0 50.0
    vertex 272.1592090138771 142.36483816947563 18.3
    vertex 272.1592090138771 142.36483816947563 50.0
  endloop
endfacet
facet normal -0.9914448613738106 0.13052619222005127 -0.0
  outer loop
    vertex 272.1592090138771 142.36483816947563 18.3
    vertex 273.16439713834956 150.0 50.0
    vertex 273.16439713834956 150.0 18.3
  endloop
endfacet
facet normal -0.9914448613738106 -0.13052619222005127 -0.0
  outer loop
    vertex 272.1592090138771 157.63516183052437 50.0
    vertex 273.16439713834956 150.0 18.3
    vertex 273.16439713834956 150.0 50.0
  endloop
endfacet
facet normal -0.9914448613738106 -0.13052619222005127 -0.0
  outer loop
    vertex 273.16439713834956 150.0 18.3
    vertex 272.1592090138771 157.63516183052437 50.0
    vertex 272.1592090138771 157.63516183052437 18.3
  endloop
endfacet
facet normal -0.9238795325112864 -0.3826834323650908 -0.0
  outer loop
    vertex 269.2121465499905 164.75 50.0
    vertex 272.1592090138771 157.63516183052437 18.3
    vertex 272.1592090138771 157.63516183052437 50.0
  endloop
endfacet
facet normal -0.9238795325112864 -0.3826834323650908 -0.0
  outer loop
    vertex 272.1592090138771 157.63516183052437 18.3
    vertex 269.2121465499905 164.75 50.0
    vertex 269.2121465499905 164.75 18.3
  endloop
endfacet
facet normal -0.7933533402912367 -0.6087614290087189 -0.0
  outer loop
    vertex 264.5240471833527 170.85965004500315 50.0
    vertex 269.2121465499905 164.75 18.3
    vertex 269.2121465499905 164.75 50.0
  endloop
endfacet
facet normal -0.7933533402912367 -0.6087614290087189 -0.0
  outer loop
    vertex 269.2121465499905 164.75 18.3
    vertex 264.5240471833527 170.85965004500315 50.0
    vertex 264.5240471833527 170.85965004500315 18.3
  endloop
endfacet
facet normal -0.6087614290087179 -0.7933533402912375 -0.0
  outer loop
    vertex 264.5240471833527 170.85965004500315 50.0
    vertex 258.41439713834956 175.54774941164095 18.3
    vertex 264.5240471833527 170.85965004500315 18.3
  endloop
endfacet
facet normal -0.6087614290087179 -0.7933533402912375 -0.0
  outer loop
    vertex 258.41439713834956 175.54774941164095 18.3
    vertex 264.5240471833527 170.85965004500315 50.0
    vertex 258.41439713834956 175.54774941164095 50.0
  endloop
endfacet
facet normal -0.3826834323650908 -0.9238795325112864 -0.0
  outer loop
    vertex 258.41439713834956 175.54774941164095 50.0
    vertex 251.2995589688739 178.49481187552752 18.3
    vertex 258.41439713834956 175.54774941164095 18.3
  endloop
endfacet
facet normal -0.3826834323650908 -0.9238795325112864 -0.0
  outer loop
    vertex 251.2995589688739 178.49481187552752 18.3
    vertex 258.41439713834956 175.54774941164095 50.0
    vertex 251.2995589688739 178.49481187552752 50.0
  endloop
endfacet
facet normal -0.1305261922200516 -0.9914448613738104 -0.0
  outer loop
    vertex 251.2995589688739 178.49481187552752 50.0
    vertex 243.66439713834956 179.5 18.3
    vertex 251.2995589688739 178.49481187552752 18.3
  endloop
endfacet
facet normal -0.1305261922200516 -0.9914448613738104 -0.0
  outer loop
    vertex 243.66439713834956 179.5 18.3
    vertex 251.2995589688739 178.49481187552752 50.0
    vertex 243.66439713834956 179.5 50.0
  endloop
endfacet
facet normal 0.13052619222005085 -0.9914448613738105 -0.0
  outer loop
    vertex 243.66439713834956 179.5 50.0
    vertex 236.02923530782516 178.49481187552752 18.3
    vertex 243.66439713834956 179.5 18.3
  endloop
endfacet
facet normal 0.13052619222005085 -0.9914448613738105 -0.0
  outer loop
    vertex 236.02923530782516 178.49481187552752 18.3
    vertex 243.66439713834956 179.5 50.0
    vertex 236.02923530782516 178.49481187552752 50.0
  endloop
endfacet
facet normal 0.3826834323650908 -0.9238795325112864 -0.0
  outer loop
    vertex 236.02923530782516 178.49481187552752 50.0
    vertex 228.91439713834953 175.54774941164095 18.3
    vertex 236.02923530782516 178.49481187552752 18.3
  endloop
endfacet
facet normal 0.3826834323650908 -0.9238795325112864 -0.0
  outer loop
    vertex 228.91439713834953 175.54774941164095 18.3
    vertex 236.02923530782516 178.49481187552752 50.0
    vertex 228.91439713834953 175.54774941164095 50.0
  endloop
endfacet
facet normal 0.6087614290087207 -0.7933533402912353 -0.0
  outer loop
    vertex 228.91439713834953 175.54774941164095 50.0
    vertex 222.80474709334638 170.85965004500315 18.3
    vertex 228.91439713834953 175.54774941164095 18.3
  endloop
endfacet
facet normal 0.6087614290087207 -0.7933533402912353 -0.0
  outer loop
    vertex 222.80474709334638 170.85965004500315 18.3
    vertex 228.91439713834953 175.54774941164095 50.0
    vertex 222.80474709334638 170.85965004500315 50.0
  endloop
endfacet
facet normal 0.7933533402912377 -0.6087614290087174 -0.0
  outer loop
    vertex 222.80474709334638 170.85965004500315 18.3
    vertex 218.1166477267086 164.74999999999997 50.0
    vertex 218.1166477267086 164.74999999999997 18.3
  endloop
endfacet
facet normal 0.7933533402912377 -0.6087614290087174 -0.0
  outer loop
    vertex 218.1166477267086 164.74999999999997 50.0
    vertex 222.80474709334638 170.85965004500315 18.3
    vertex 222.80474709334638 170.85965004500315 50.0
  endloop
endfacet
facet normal 0.9238795325112864 -0.3826834323650908 -0.0
  outer loop
    vertex 218.1166477267086 164.74999999999997 18.3
    vertex 215.169585262822 157.63516183052434 50.0
    vertex 215.169585262822 157.63516183052434 18.3
  endloop
endfacet
facet normal 0.9238795325112864 -0.3826834323650908 -0.0
  outer loop
    vertex 215.169585262822 157.63516183052434 50.0
    vertex 218.1166477267086 164.74999999999997 18.3
    vertex 218.1166477267086 164.74999999999997 50.0
  endloop
endfacet
facet normal 0.0 0.0 1.0
  outer loop
    vertex 147.35727070613353 142.36483816947563 18.3
    vertex 147.35727070613353 157.63516183052434 18.3
    vertex 146.35208258166105 150.0 18.3
  endloop
endfacet
facet normal 0.0 0.0 1.0
  outer loop
    vertex 147.35727070613353 157.63516183052434 18.3
    vertex 147.35727070613353 142.36483816947563 18.3
    vertex 150.3043331700201 135.25 18.3
  endloop
endfacet
facet normal 0.0 0.0 1.0
  outer loop
    vertex 147.35727070613353 157.63516183052434 18.3
    vertex 150.3043331700201 135.25 18.3
    vertex 150.3043331700201 164.75 18.3
  endloop
endfacet
facet normal 0.0 0.0 1.0
  outer loop
    vertex 150.3043331700201 164.75 18.3
    vertex 150.3043331700201 135.25 18.3
    vertex 154.9924325366579 129.14034995499685 18.3
  endloop
endfacet
facet normal 0.0 0.0 1.0
  outer loop
    vertex 150.3043331700201 164.75 18.3
    vertex 154.9924325366579 129.14034995499685 18.3
    vertex 154.99243253665787 170.85965004500315 18.3
  endloop
endfacet
facet normal 0.0 0.0 1.0
  outer loop
    vertex 154.99243253665787 170.85965004500315 18.3
    vertex 154.9924325366579 129.14034995499685 18.3
    vertex 161.10208258166102 175.54774941164095 18.3
  endloop
endfacet
facet normal 0.0 0.0 1.0
  outer loop
    vertex 161.10208258166102 175.54774941164095 18.3
    vertex 154.9924325366579 129.14034995499685 18.3
    vertex 161.10208258166105 124.45225058835905 18.3
  endloop
endfacet
facet normal 0.0 0.0 1.0
  outer loop
    vertex 161.10208258166102 175.54774941164095 18.3
    vertex 161.10208258166105 124.45225058835905 18.3
    vertex 168.21692075113666 178.49481187552752 18.3
  endloop
endfacet
facet normal 0.0 0.0 1.0
  outer loop
    vertex 168.21692075113666 178.49481187552752 18.3
    vertex 161.10208258166105 124.45225058835905 18.3
    vertex 168.21692075113668 121.50518812447247 18.3
  endloop
endfacet
facet normal 0.0 0.0 1.0
  outer loop
    vertex 168.21692075113666 178.49481187552752 18.3
    vertex 168.21692075113668 121.50518812447247 18.3
    vertex 175.85208258166105 179.5 18.3
  endloop
endfacet
facet normal 0.0 0.0 1.0
  outer loop
    vertex 175.85208258166105 179.5 18.3
    vertex 168.21692075113668 121.50518812447247 18.3
    vertex 175.85208258166105 120.49999999999999 18.3
  endloop
endfacet
facet normal 0.0 0.0 1.0
  outer loop
    vertex 175.85208258166105 179.5 18.3
    vertex 175.85208258166105 120.49999999999999 18.3
    vertex 183.48724441218542 121.50518812447247 18.3
  endloop
endfacet
facet normal 0.0 0.0 1.0
  outer loop
    vertex 175.85208258166105 179.5 18.3
    vertex 183.48724441218542 121.50518812447247 18.3
    vertex 183.4872444121854 178.49481187552752 18.3
  endloop
endfacet
facet normal 0.0 0.0 1.0
  outer loop
    vertex 183.4872444121854 178.49481187552752 18.3
    vertex 183.48724441218542 121.50518812447247 18.3
    vertex 190.60208258166102 175.54774941164098 18.3
  endloop
endfacet
facet normal 0.0 0.0 1.0
  outer loop
    vertex 190.60208258166102 175.54774941164098 18.3
    vertex 183.48724441218542 121.50518812447247 18.3
    vertex 190.60208258166105 124.45225058835905 18.3
  endloop
endfacet
facet normal 0.0 0.0 1.0
  outer loop
    vertex 190.60208258166102 175.54774941164098 18.3
    vertex 190.60208258166105 124.45225058835905 18.3
    vertex 196.7117326266642 170.85965004500315 18.3
  endloop
endfacet
facet normal 0.0 0.0 1.0
  outer loop
    vertex 196.7117326266642 170.85965004500315 18.3
    vertex 190.60208258166105 124.45225058835905 18.3
    vertex 196.7117326266642 129.14034995499685 18.3
  endloop
endfacet
facet normal 0.0 0.0 1.0
  outer loop
    vertex 196.7117326266642 170.85965004500315 18.3
    vertex 196.7117326266642 129.14034995499685 18.3
    vertex 201.399831993302 135.25 18.3
  endloop
endfacet
facet normal 0.0 0.0 1.0
  outer loop
    vertex 196.7117326266642 170.85965004500315 18.3
    vertex 201.399831993302 135.25 18.3
    vertex 201.399831993302 164.75000000000003 18.3
  endloop
endfacet
facet normal 0.0 0.0 1.0
  outer loop
    vertex 201.399831993302 164.75000000000003 18.3
    vertex 201.399831993302 135.25 18.3
    vertex 204.34689445718857 142.36483816947563 18.3
  endloop
endfacet
facet normal 0.0 0.0 1.0
  outer loop
    vertex 201.399831993302 164.75000000000003 18.3
    vertex 204.34689445718857 142.36483816947563 18.3
    vertex 204.34689445718857 157.6351618305244 18.3
  endloop
endfacet
facet normal 0.0 0.0 1.0
  outer loop
    vertex 204.34689445718857 157.6351618305244 18.3
    vertex 204.34689445718857 142.36483816947563 18.3
    vertex 205.35208258166108 150.0 18.3
  endloop
endfacet
facet normal 0.9914448613738104 -0.1305261922200516 -0.0
  outer loop
    vertex 147.35727070613353 157.63516183052434 18.3
    vertex 146.35208258166105 150.0 50.0
    vertex 146.35208258166105 150.0 18.3
  endloop
endfacet
facet normal 0.9914448613738104 -0.1305261922200516 -0.0
  outer loop
    vertex 146.35208258166105 150.0 50.0
    vertex 147.35727070613353 157.63516183052434 18.3
    vertex 147.35727070613353 157.63516183052434 50.0
  endloop
endfacet
facet normal 0.9914448613738106 0.13052619222005127 0.0
  outer loop
    vertex 146.35208258166105 150.0 18.3
    vertex 147.35727070613353 142.36483816947563 50.0
    vertex 147.35727070613353 142.36483816947563 18.3
  endloop
endfacet
facet normal 0.9914448613738106 0.13052619222005127 0.0
  outer loop
    vertex 147.35727070613353 142.36483816947563 50.0
    vertex 146.35208258166105 150.0 18.3
    vertex 146.35208258166105 150.0 50.0
  endloop
endfacet
facet normal 0.9238795325112864 0.3826834323650908 0.0
  outer loop
    vertex 147.35727070613353 142.36483816947563 18.3
    vertex 150.3043331700201 135.25 50.0
    vertex 150.3043331700201 135.25 18.3
  endloop
endfacet
facet normal 0.9238795325112864 0.3826834323650908 0.0
  outer loop
    vertex 150.3043331700201 135.25 50.0
    vertex 147.35727070613353 142.36483816947563 18.3
    vertex 147.35727070613353 142.36483816947563 50.0
  endloop
endfacet
facet normal 0.7933533402912353 0.6087614290087207 0.0
  outer loop
    vertex 150.3043331700201 135.25 18.3
    vertex 154.9924325366579 129.14034995499685 50.0
    vertex 154.9924325366579 129.14034995499685 18.3
  endloop
endfacet
facet normal 0.7933533402912353 0.6087614290087207 0.0
  outer loop
    vertex 154.9924325366579 129.14034995499685 50.0
    vertex 150.3043331700201 135.25 18.3
    vertex 150.3043331700201 135.25 50.0
  endloop
endfacet
facet normal 0.6087614290087207 0.7933533402912353 0.0
  outer loop
    vertex 154.9924325366579 129.14034995499685 50.0
    vertex 161.10208258166105 124.45225058835905 18.3
    vertex 154.9924325366579 129.14034995499685 18.3
  endloop
endfacet
facet normal 0.6087614290087207 0.7933533402912353 0.0
  outer loop
    vertex 161.10208258166105 124.45225058835905 18.3
    vertex 154.9924325366579 129.14034995499685 50.0
    vertex 161.10208258166105 124.45225058835905 50.0
  endloop
endfacet
facet normal 0.3826834323650908 0.9238795325112864 0.0
  outer loop
    vertex 161.10208258166105 124.45225058835905 50.0
    vertex 168.21692075113668 121.50518812447247 18.3
    vertex 161.10208258166105 124.45225058835905 18.3
  endloop
endfacet
facet normal 0.3826834323650908 0.9238795325112864 0.0
  outer loop
    vertex 168.21692075113668 121.50518812447247 18.3
    vertex 161.10208258166105 124.45225058835905 50.0
    vertex 168.21692075113668 121.50518812447247 50.0
  endloop
endfacet
facet normal 0.13052619222005127 0.9914448613738106 0.0
  outer loop
    vertex 168.21692075113668 121.50518812447247 50.0
    vertex 175.85208258166105 120.49999999999999 18.3
    vertex 168.21692075113668 121.50518812447247 18.3
  endloop
endfacet
facet normal 0.13052619222005127 0.9914448613738106 0.0
  outer loop
    vertex 175.85208258166105 120.49999999999999 18.3
    vertex 168.21692075113668 121.50518812447247 50.0
    vertex 175.85208258166105 120.49999999999999 50.0
  endloop
endfacet
facet normal -0.13052619222005127 0.9914448613738106 -0.0
  outer loop
    vertex 175.85208258166105 120.49999999999999 50.0
    vertex 183.48724441218542 121.50518812447247 18.3
    vertex 175.85208258166105 120.49999999999999 18.3
  endloop
endfacet
facet normal -0.13052619222005127 0.9914448613738106 -0.0
  outer loop
    vertex 183.48724441218542 121.50518812447247 18.3
    vertex 175.85208258166105 120.49999999999999 50.0
    vertex 183.48724441218542 121.50518812447247 50.0
  endloop
endfacet
facet normal -0.3826834323650908 0.9238795325112864 -0.0
  outer loop
    vertex 183.48724441218542 121.50518812447247 50.0
    vertex 190.60208258166105 124.45225058835905 18.3
    vertex 183.48724441218542 121.50518812447247 18.3
  endloop
endfacet
facet normal -0.3826834323650908 0.9238795325112864 -0.0
  outer loop
    vertex 190.60208258166105 124.45225058835905 18.3
    vertex 183.48724441218542 121.50518812447247 50.0
    vertex 190.60208258166105 124.45225058835905 50.0
  endloop
endfacet
facet normal -0.6087614290087207 0.7933533402912353 -0.0
  outer loop
    vertex 190.60208258166105 124.45225058835905 50.0
    vertex 196.7117326266642 129.14034995499685 18.3
    vertex 190.60208258166105 124.45225058835905 18.3
  endloop
endfacet
facet normal -0.6087614290087207 0.7933533402912353 -0.0
  outer loop
    vertex 196.7117326266642 129.14034995499685 18.3
    vertex 190.60208258166105 124.45225058835905 50.0
    vertex 196.7117326266642 129.14034995499685 50.0
  endloop
endfacet
facet normal -0.7933533402912353 0.6087614290087207 -0.0
  outer loop
    vertex 201.399831993302 135.25 50.0
    vertex 196.7117326266642 129.14034995499685 18.3
    vertex 196.7117326266642 129.14034995499685 50.0
  endloop
endfacet
facet normal -0.7933533402912353 0.6087614290087207 -0.0
  outer loop
    vertex 196.7117326266642 129.14034995499685 18.3
    vertex 201.399831993302 135.25 50.0
    vertex 201.399831993302 135.25 18.3
  endloop
endfacet
facet normal -0.9238795325112864 0.3826834323650908 -0.0
  outer loop
    vertex 204.34689445718857 142.36483816947563 50.0
    vertex 201.399831993302 135.25 18.3
    vertex 201.399831993302 135.25 50.0
  endloop
endfacet
facet normal -0.9238795325112864 0.3826834323650908 -0.0
  outer loop
    vertex 201.399831993302 135.25 18.3
    vertex 204.34689445718857 142.36483816947563 50.0
    vertex 204.34689445718857 142.36483816947563 18.3
  endloop
endfacet
facet normal -0.9914448613738106 0.13052619222005127 -0.0
  outer loop
    vertex 205.35208258166108 150.0 50.0
    vertex 204.34689445718857 142.36483816947563 18.3
    vertex 204.34689445718857 142.36483816947563 50.0
  endloop
endfacet
facet normal -0.9914448613738106 0.13052619222005127 -0.0
  outer loop
    vertex 204.34689445718857 142.36483816947563 18.3
    vertex 205.35208258166108 150.0 50.0
    vertex 205.35208258166108 150.0 18.3
  endloop
endfacet
facet normal -0.9914448613738105 -0.13052619222005085 -0.0
  outer loop
    vertex 204.34689445718857 157.6351618305244 50.0
    vertex 205.35208258166108 150.0 18.3
    vertex 205.35208258166108 150.0 50.0
  endloop
endfacet
facet normal -0.9914448613738105 -0.13052619222005085 -0.0
  outer loop
    vertex 205.35208258166108 150.0 18.3
    vertex 204.34689445718857 157.6351618305244 50.0
    vertex 204.34689445718857 157.6351618305244 18.3
  endloop
endfacet
facet normal -0.9238795325112864 -0.3826834323650908 -0.0
  outer loop
    vertex 201.399831993302 164.75000000000003 50.0
    vertex 204.34689445718857 157.6351618305244 18.3
    vertex 204.34689445718857 157.6351618305244 50.0
  endloop
endfacet
facet normal -0.9238795325112864 -0.3826834323650908 -0.0
  outer loop
    vertex 204.34689445718857 157.6351618305244 18.3
    vertex 201.399831993302 164.75000000000003 50.0
    vertex 201.399831993302 164.75000000000003 18.3
  endloop
endfacet
facet normal -0.7933533402912342 -0.6087614290087221 -0.0
  outer loop
    vertex 196.7117326266642 170.85965004500315 50.0
    vertex 201.399831993302 164.75000000000003 18.3
    vertex 201.399831993302 164.75000000000003 50.0
  endloop
endfacet
facet normal -0.7933533402912342 -0.6087614290087221 -0.0
  outer loop
    vertex 201.399831993302 164.75000000000003 18.3
    vertex 196.7117326266642 170.85965004500315 50.0
    vertex 196.7117326266642 170.85965004500315 18.3
  endloop
endfacet
facet normal -0.6087614290087211 -0.7933533402912349 -0.0
  outer loop
    vertex 196.7117326266642 170.85965004500315 50.0
    vertex 190.60208258166102 175.54774941164098 18.3
    vertex 196.7117326266642 170.85965004500315 18.3
  endloop
endfacet
facet normal -0.6087614290087211 -0.7933533402912349 -0.0
  outer loop
    vertex 190.60208258166102 175.54774941164098 18.3
    vertex 196.7117326266642 170.85965004500315 50.0
    vertex 190.60208258166102 175.54774941164098 50.0
  endloop
endfacet
facet normal -0.3826834323650883 -0.9238795325112874 -0.0
  outer loop
    vertex 190.60208258166102 175.54774941164098 50.0
    vertex 183.4872444121854 178.49481187552752 18.3
    vertex 190.60208258166102 175.54774941164098 18.3
  endloop
endfacet
facet normal -0.3826834323650883 -0.9238795325112874 -0.0
  outer loop
    vertex 183.4872444121854 178.49481187552752 18.3
    vertex 190.60208258166102 175.54774941164098 50.0
    vertex 183.4872444121854 178.49481187552752 50.0
  endloop
endfacet
facet normal -0.1305261922200516 -0.9914448613738104 -0.0
  outer loop
    vertex 183.4872444121854 178.49481187552752 50.0
    vertex 175.85208258166105 179.5 18.3
    vertex 183.4872444121854 178.49481187552752 18.3
  endloop
endfacet
facet normal -0.1305261922200516 -0.9914448613738104 -0.0
  outer loop
    vertex 175.85208258166105 179.5 18.3
    vertex 183.4872444121854 178.49481187552752 50.0
    vertex 175.85208258166105 179.5 50.0
  endloop
endfacet
facet normal 0.13052619222005085 -0.9914448613738105 -0.0
  outer loop
    vertex 175.85208258166105 179.5 50.0
    vertex 168.21692075113666 178.49481187552752 18.3
    vertex 175.85208258166105 179.5 18.3
  endloop
endfacet
facet normal 0.13052619222005085 -0.9914448613738105 -0.0
  outer loop
    vertex 168.21692075113666 178.49481187552752 18.3
    vertex 175.85208258166105 179.5 50.0
    vertex 168.21692075113666 178.49481187552752 50.0
  endloop
endfacet
facet normal 0.3826834323650908 -0.9238795325112864 -0.0
  outer loop
    vertex 168.21692075113666 178.49481187552752 50.0
    vertex 161.10208258166102 175.54774941164095 18.3
    vertex 168.21692075113666 178.49481187552752 18.3
  endloop
endfacet
facet normal 0.3826834323650908 -0.9238795325112864 -0.0
  outer loop
    vertex 161.10208258166102 175.54774941164095 18.3
    vertex 168.21692075113666 178.49481187552752 50.0
    vertex 161.10208258166102 175.54774941164095 50.0
  endloop
endfacet
facet normal 0.6087614290087207 -0.7933533402912353 -0.0
  outer loop
    vertex 161.10208258166102 175.54774941164095 50.0
    vertex 154.99243253665787 170.85965004500315 18.3
    vertex 161.10208258166102 175.54774941164095 18.3
  endloop
endfacet
facet normal 0.6087614290087207 -0.7933533402912353 -0.0
  outer loop
    vertex 154.99243253665787 170.85965004500315 18.3
    vertex 161.10208258166102 175.54774941164095 50.0
    vertex 154.99243253665787 170.85965004500315 50.0
  endloop
endfacet
facet normal 0.7933533402912367 -0.6087614290087189 -0.0
  outer loop
    vertex 154.99243253665787 170.85965004500315 18.3
    vertex 150.3043331700201 164.75 50.0
    vertex 150.3043331700201 164.75 18.3
  endloop
endfacet
facet normal 0.7933533402912367 -0.6087614290087189 -0.0
  outer loop
    vertex 150.3043331700201 164.75 50.0
    vertex 154.99243253665787 170.85965004500315 18.3
    vertex 154.99243253665787 170.85965004500315 50.0
  endloop
endfacet
facet normal 0.9238795325112868 -0.3826834323650897 -0.0
  outer loop
    vertex 150.3043331700201 164.75 18.3
    vertex 147.35727070613353 157.63516183052434 50.0
    vertex 147.35727070613353 157.63516183052434 18.3
  endloop
endfacet
facet normal 0.9238795325112868 -0.3826834323650897 -0.0
  outer loop
    vertex 147.35727070613353 157.63516183052434 50.0
    vertex 150.3043331700201 164.75 18.3
    vertex 150.3043331700201 164.75 50.0
  endloop
endfacet
facet normal 0.0 0.0 1.0
  outer loop
    vertex 77.1994244611916 150.0 18.3
    vertex 79.03094577830267 160.88255143183963 18.3
    vertex 77.1486254808004 153.4150907093793 18.3
  endloop
endfacet
facet normal 0.0 0.0 1.0
  outer loop
    vertex 79.03094577830267 160.88255143183963 18.3
    vertex 77.1994244611916 150.0 18.3
    vertex 77.26316474562259 145.71489719877903 18.3
  endloop
endfacet
facet normal 0.0 0.0 1.0
  outer loop
    vertex 79.03094577830267 160.88255143183963 18.3
    vertex 77.26316474562259 145.71489719877903 18.3
    vertex 79.3667579111567 138.30672636261477 18.3
  endloop
endfacet
facet normal 0.0 0.0 1.0
  outer loop
    vertex 79.03094577830267 160.88255143183963 18.3
    vertex 79.3667579111567 138.30672636261477 18.3
    vertex 82.781848620536 167.60838425848664 18.3
  endloop
endfacet
facet normal 0.0 0.0 1.0
  outer loop
    vertex 82.781848620536 167.60838425848664 18.3
    vertex 79.3667579111567 138.30672636261477 18.3
    vertex 83.31604857952362 131.69543280078994 18.3
  endloop
endfacet
facet normal 0.0 0.0 1.0
  outer loop
    vertex 82.781848620536 167.60838425848664 18.3
    vertex 83.31604857952362 131.69543280078994 18.3
    vertex 88.14571617746223 173.13423479714865 18.3
  endloop
endfacet
facet normal 0.0 0.0 1.0
  outer loop
    vertex 88.14571617746223 173.13423479714865 18.3
    vertex 83.31604857952362 131.69543280078994 18.3
    vertex 88.84189911818565 126.33156524386371 18.3
  endloop
endfacet
facet normal 0.0 0.0 1.0
  outer loop
    vertex 88.14571617746223 173.13423479714865 18.3
    vertex 88.84189911818565 126.33156524386371 18.3
    vertex 94.75700973928704 177.0835254655156 18.3
  endloop
endfacet
facet normal 0.0 0.0 1.0
  outer loop
    vertex 94.75700973928704 177.0835254655156 18.3
    vertex 88.84189911818565 126.33156524386371 18.3
    vertex 95.56773194483266 122.58066240163036 18.3
  endloop
endfacet
facet normal 0.0 0.0 1.0
  outer loop
    vertex 94.75700973928704 177.0835254655156 18.3
    vertex 95.56773194483266 122.58066240163036 18.3
    vertex 102.16518057545133 179.1871186310497 18.3
  endloop
endfacet
facet normal 0.0 0.0 1.0
  outer loop
    vertex 102.16518057545133 179.1871186310497 18.3
    vertex 95.56773194483266 122.58066240163036 18.3
    vertex 103.03519266729297 120.69834210412809 18.3
  endloop
endfacet
facet normal 0.0 0.0 1.0
  outer loop
    vertex 102.16518057545133 179.1871186310497 18.3
    vertex 103.03519266729297 120.69834210412809 18.3
    vertex 109.86537408605163 179.3016578958719 18.3
  endloop
endfacet
facet normal 0.0 0.0 1.0
  outer loop
    vertex 109.86537408605163 179.3016578958719 18.3
    vertex 103.03519266729297 120.69834210412809 18.3
    vertex 110.73538617789323 120.81288136895027 18.3
  endloop
endfacet
facet normal 0.0 0.0 1.0
  outer loop
    vertex 109.86537408605163 179.3016578958719 18.3
    vertex 110.73538617789323 120.81288136895027 18.3
    vertex 117.33283480851195 177.4193375983696 18.3
  endloop
endfacet
facet normal 0.0 0.0 1.0
  outer loop
    vertex 117.33283480851195 177.4193375983696 18.3
    vertex 110.73538617789323 120.81288136895027 18.3
    vertex 118.14355701405752 122.9164745344844 18.3
  endloop
endfacet
facet normal 0.0 0.0 1.0
  outer loop
    vertex 117.33283480851195 177.4193375983696 18.3
    vertex 118.14355701405752 122.9164745344844 18.3
    vertex 124.05866763515895 173.66843475613626 18.3
  endloop
endfacet
facet normal 0.0 0.0 1.0
  outer loop
    vertex 124.05866763515895 173.66843475613626 18.3
    vertex 118.14355701405752 122.9164745344844 18.3
    vertex 124.75485057588233 126.86576520285134 18.3
  endloop
endfacet
facet normal 0.0 0.0 1.0
  outer loop
    vertex 124.05866763515895 173.66843475613626 18.3
    vertex 124.75485057588233 126.86576520285134 18.3
    vertex 129.58451817382095 168.30456719921006 18.3
  endloop
endfacet
facet normal 0.0 0.0 1.0
  outer loop
    vertex 129.58451817382095 168.30456719921006 18.3
    vertex 124.75485057588233 126.86576520285134 18.3
    vertex 130.11871813280854 132.39161574151333 18.3
  endloop
endfacet
facet normal 0.0 0.0 1.0
  outer loop
    vertex 129.58451817382095 168.30456719921006 18.3
    vertex 130.11871813280854 132.39161574151333 18.3
    vertex 133.5338088421879 161.69327363738523 18.3
  endloop
endfacet
facet normal 0.0 0.0 1.0
  outer loop
    vertex 133.5338088421879 161.69327363738523 18.3
    vertex 130.11871813280854 132.39161574151333 18.3
    vertex 133.86962097504193 139.11744856816034 18.3
  endloop
endfacet
facet normal 0.0 0.0 1.0
  outer loop
    vertex 133.5338088421879 161.69327363738523 18.3
    vertex 133.86962097504193 139.11744856816034 18.3
    vertex 135.637402007722 154.28510280122094 18.3
  endloop
endfacet
facet normal 0.0 0.0 1.0
  outer loop
    vertex 135.637402007722 154.28510280122094 18.3
    vertex 133.86962097504193 139.11744856816034 18.3
    vertex 135.75194127254417 146.58490929062066 18.3
  endloop
endfacet
facet normal 0.0 0.0 1.0
  outer loop
    vertex 135.637402007722 154.28510280122094 18.3
    vertex 135.75194127254417 146.58490929062066 18.3
    vertex 135.701142292153 150.0 18.3
  endloop
endfacet
facet normal 0.9998893876941313 0.014873210031974147 0.0
  outer loop
    vertex 77.1486254808004 153.4150907093793 18.3
    vertex 77.1994244611916 150.0 50.0
    vertex 77.1994244611916 150.0 18.3
  endloop
endfacet
facet normal 0.9998893876941313 0.014873210031974147 0.0
  outer loop
    vertex 77.1994244611916 150.0 50.0
    vertex 77.1486254808004 153.4150907093793 18.3
    vertex 77.1486254808004 153.4150907093793 50.0
  endloop
endfacet
facet normal 0.9998893876941315 0.014873210031971335 0.0
  outer loop
    vertex 77.1994244611916 150.0 18.3
    vertex 77.26316474562259 145.71489719877903 50.0
    vertex 77.26316474562259 145.71489719877903 18.3
  endloop
endfacet
facet normal 0.9998893876941315 0.014873210031971335 0.0
  outer loop
    vertex 77.26316474562259 145.71489719877903 50.0
    vertex 77.1994244611916 150.0 18.3
    vertex 77.1994244611916 150.0 50.0
  endloop
endfacet
facet normal 0.9619695129880399 0.2731568342208439 0.0
  outer loop
    vertex 77.26316474562259 145.71489719877903 18.3
    vertex 79.3667579111567 138.30672636261477 50.0
    vertex 79.3667579111567 138.30672636261477 18.3
  endloop
endfacet
facet normal 0.9619695129880399 0.2731568342208439 0.0
  outer loop
    vertex 79.3667579111567 138.30672636261477 50.0
    vertex 77.26316474562259 145.71489719877903 18.3
    vertex 77.26316474562259 145.71489719877903 50.0
  endloop
endfacet
facet normal 0.858493005701599 0.5128252715705754 0.0
  outer loop
    vertex 79.3667579111567 138.30672636261477 18.3
    vertex 83.31604857952362 131.69543280078994 50.0
    vertex 83.31604857952362 131.69543280078994 18.3
  endloop
endfacet
facet normal 0.858493005701599 0.5128252715705754 0.0
  outer loop
    vertex 83.31604857952362 131.69543280078994 50.0
    vertex 79.3667579111567 138.30672636261477 18.3
    vertex 79.3667579111567 138.30672636261477 50.0
  endloop
endfacet
facet normal 0.6965116188033654 0.7175455141466047 0.0
  outer loop
    vertex 83.31604857952362 131.69543280078994 50.0
    vertex 88.84189911818565 126.33156524386371 18.3
    vertex 83.31604857952362 131.69543280078994 18.3
  endloop
endfacet
facet normal 0.6965116188033654 0.7175455141466047 0.0
  outer loop
    vertex 88.84189911818565 126.33156524386371 18.3
    vertex 83.31604857952362 131.69543280078994 50.0
    vertex 88.84189911818565 126.33156524386371 50.0
  endloop
endfacet
facet normal 0.4870641161235564 0.8733662157335711 0.0
  outer loop
    vertex 88.84189911818565 126.33156524386371 50.0
    vertex 95.56773194483266 122.58066240163036 18.3
    vertex 88.84189911818565 126.33156524386371 18.3
  endloop
endfacet
facet normal 0.4870641161235564 0.8733662157335711 0.0
  outer loop
    vertex 95.56773194483266 122.58066240163036 18.3
    vertex 88.84189911818565 126.33156524386371 50.0
    vertex 95.56773194483266 122.58066240163036 50.0
  endloop
endfacet
facet normal 0.24442399884143426 0.969668453024209 0.0
  outer loop
    vertex 95.56773194483266 122.58066240163036 50.0
    vertex 103.03519266729297 120.69834210412809 18.3
    vertex 95.56773194483266 122.58066240163036 18.3
  endloop
endfacet
facet normal 0.24442399884143426 0.969668453024209 0.0
  outer loop
    vertex 103.03519266729297 120.69834210412809 18.3
    vertex 95.56773194483266 122.58066240163036 50.0
    vertex 103.03519266729297 120.69834210412809 50.0
  endloop
endfacet
facet normal -0.01487321003197267 0.9998893876941314 -0.0
  outer loop
    vertex 103.03519266729297 120.69834210412809 50.0
    vertex 110.73538617789323 120.81288136895027 18.3
    vertex 103.03519266729297 120.69834210412809 18.3
  endloop
endfacet
facet normal -0.01487321003197267 0.9998893876941314 -0.0
  outer loop
    vertex 110.73538617789323 120.81288136895027 18.3
    vertex 103.03519266729297 120.69834210412809 50.0
    vertex 110.73538617789323 120.81288136895027 50.0
  endloop
endfacet
facet normal -0.2731568342208444 0.9619695129880396 -0.0
  outer loop
    vertex 110.73538617789323 120.81288136895027 50.0
    vertex 118.14355701405752 122.9164745344844 18.3
    vertex 110.73538617789323 120.81288136895027 18.3
  endloop
endfacet
facet normal -0.2731568342208444 0.9619695129880396 -0.0
  outer loop
    vertex 118.14355701405752 122.9164745344844 18.3
    vertex 110.73538617789323 120.81288136895027 50.0
    vertex 118.14355701405752 122.9164745344844 50.0
  endloop
endfacet
facet normal -0.5128252715705754 0.858493005701599 -0.0
  outer loop
    vertex 118.14355701405752 122.9164745344844 50.0
    vertex 124.75485057588233 126.86576520285134 18.3
    vertex 118.14355701405752 122.9164745344844 18.3
  endloop
endfacet
facet normal -0.5128252715705754 0.858493005701599 -0.0
  outer loop
    vertex 124.75485057588233 126.86576520285134 18.3
    vertex 118.14355701405752 122.9164745344844 50.0
    vertex 124.75485057588233 126.86576520285134 50.0
  endloop
endfacet
facet normal -0.7175455141466048 0.6965116188033654 -0.0
  outer loop
    vertex 130.11871813280854 132.39161574151333 50.0
    vertex 124.75485057588233 126.86576520285134 18.3
    vertex 124.75485057588233 126.86576520285134 50.0
  endloop
endfacet
facet normal -0.7175455141466048 0.6965116188033654 -0.0
  outer loop
    vertex 124.75485057588233 126.86576520285134 18.3
    vertex 130.11871813280854 132.39161574151333 50.0
    vertex 130.11871813280854 132.39161574151333 18.3
  endloop
endfacet
facet normal -0.8733662157335703 0.48706411612355804 -0.0
  outer loop
    vertex 133.86962097504193 139.11744856816034 50.0
    vertex 130.11871813280854 132.39161574151333 18.3
    vertex 130.11871813280854 132.39161574151333 50.0
  endloop
endfacet
facet normal -0.8733662157335703 0.48706411612355804 -0.0
  outer loop
    vertex 130.11871813280854 132.39161574151333 18.3
    vertex 133.86962097504193 139.11744856816034 50.0
    vertex 133.86962097504193 139.11744856816034 18.3
  endloop
endfacet
facet normal -0.969668453024209 0.24442399884143426 -0.0
  outer loop
    vertex 135.75194127254417 146.58490929062066 50.0
    vertex 133.86962097504193 139.11744856816034 18.3
    vertex 133.86962097504193 139.11744856816034 50.0
  endloop
endfacet
facet normal -0.969668453024209 0.24442399884143426 -0.0
  outer loop
    vertex 133.86962097504193 139.11744856816034 18.3
    vertex 135.75194127254417 146.58490929062066 50.0
    vertex 135.75194127254417 146.58490929062066 18.3
  endloop
endfacet
facet normal -0.9998893876941315 -0.01487321003197085 -0.0
  outer loop
    vertex 135.701142292153 150.0 50.0
    vertex 135.75194127254417 146.58490929062066 18.3
    vertex 135.75194127254417 146.58490929062066 50.0
  endloop
endfacet
facet normal -0.9998893876941315 -0.01487321003197085 -0.0
  outer loop
    vertex 135.75194127254417 146.58490929062066 18.3
    vertex 135.701142292153 150.0 50.0
    vertex 135.701142292153 150.0 18.3
  endloop
endfacet
facet normal -0.9998893876941313 -0.014873210031974043 -0.0
  outer loop
    vertex 135.637402007722 154.28510280122094 50.0
    vertex 135.701142292153 150.0 18.3
    vertex 135.701142292153 150.0 50.0
  endloop
endfacet
facet normal -0.9998893876941313 -0.014873210031974043 -0.0
  outer loop
    vertex 135.701142292153 150.0 18.3
    vertex 135.637402007722 154.28510280122094 50.0
    vertex 135.637402007722 154.28510280122094 18.3
  endloop
endfacet
facet normal -0.9619695129880405 -0.27315683422084175 -0.0
  outer loop
    vertex 133.5338088421879 161.69327363738523 50.0
    vertex 135.637402007722 154.28510280122094 18.3
    vertex 135.637402007722 154.28510280122094 50.0
  endloop
endfacet
facet normal -0.9619695129880405 -0.27315683422084175 -0.0
  outer loop
    vertex 135.637402007722 154.28510280122094 18.3
    vertex 133.5338088421879 161.69327363738523 50.0
    vertex 133.5338088421879 161.69327363738523 18.3
  endloop
endfacet
facet normal -0.858493005701599 -0.5128252715705754 -0.0
  outer loop
    vertex 129.58451817382095 168.30456719921006 50.0
    vertex 133.5338088421879 161.69327363738523 18.3
    vertex 133.5338088421879 161.69327363738523 50.0
  endloop
endfacet
facet normal -0.858493005701599 -0.5128252715705754 -0.0
  outer loop
    vertex 133.5338088421879 161.69327363738523 18.3
    vertex 129.58451817382095 168.30456719921006 50.0
    vertex 129.58451817382095 168.30456719921006 18.3
  endloop
endfacet
facet normal -0.696511618803364 -0.7175455141466062 -0.0
  outer loop
    vertex 129.58451817382095 168.30456719921006 50.0
    vertex 124.05866763515895 173.66843475613626 18.3
    vertex 129.58451817382095 168.30456719921006 18.3
  endloop
endfacet
facet normal -0.696511618803364 -0.7175455141466062 -0.0
  outer loop
    vertex 124.05866763515895 173.66843475613626 18.3
    vertex 129.58451817382095 168.30456719921006 50.0
    vertex 124.05866763515895 173.66843475613626 50.0
  endloop
endfacet
facet normal -0.48706411612355704 -0.8733662157335708 -0.0
  outer loop
    vertex 124.05866763515895 173.66843475613626 50.0
    vertex 117.33283480851195 177.4193375983696 18.3
    vertex 124.05866763515895 173.66843475613626 18.3
  endloop
endfacet
facet normal -0.48706411612355704 -0.8733662157335708 -0.0
  outer loop
    vertex 117.33283480851195 177.4193375983696 18.3
    vertex 124.05866763515895 173.66843475613626 50.0
    vertex 117.33283480851195 177.4193375983696 50.0
  endloop
endfacet
facet normal -0.24442399884143703 -0.9696684530242083 -0.0
  outer loop
    vertex 117.33283480851195 177.4193375983696 50.0
    vertex 109.86537408605163 179.3016578958719 18.3
    vertex 117.33283480851195 177.4193375983696 18.3
  endloop
endfacet
facet normal -0.24442399884143703 -0.9696684530242083 -0.0
  outer loop
    vertex 109.86537408605163 179.3016578958719 18.3
    vertex 117.33283480851195 177.4193375983696 50.0
    vertex 109.86537408605163 179.3016578958719 50.0
  endloop
endfacet
facet normal 0.014873210031972582 -0.9998893876941314 -0.0
  outer loop
    vertex 109.86537408605163 179.3016578958719 50.0
    vertex 102.16518057545133 179.1871186310497 18.3
    vertex 109.86537408605163 179.3016578958719 18.3
  endloop
endfacet
facet normal 0.014873210031972582 -0.9998893876941314 -0.0
  outer loop
    vertex 102.16518057545133 179.1871186310497 18.3
    vertex 109.86537408605163 179.3016578958719 50.0
    vertex 102.16518057545133 179.1871186310497 50.0
  endloop
endfacet
facet normal 0.2731568342208444 -0.9619695129880396 -0.0
  outer loop
    vertex 102.16518057545133 179.1871186310497 50.0
    vertex 94.75700973928704 177.0835254655156 18.3
    vertex 102.16518057545133 179.1871186310497 18.3
  endloop
endfacet
facet normal 0.2731568342208444 -0.9619695129880396 -0.0
  outer loop
    vertex 94.75700973928704 177.0835254655156 18.3
    vertex 102.16518057545133 179.1871186310497 50.0
    vertex 94.75700973928704 177.0835254655156 50.0
  endloop
endfacet
facet normal 0.5128252715705761 -0.8584930057015987 -0.0
  outer loop
    vertex 94.75700973928704 177.0835254655156 50.0
    vertex 88.14571617746223 173.13423479714865 18.3
    vertex 94.75700973928704 177.0835254655156 18.3
  endloop
endfacet
facet normal 0.5128252715705761 -0.8584930057015987 -0.0
  outer loop
    vertex 88.14571617746223 173.13423479714865 18.3
    vertex 94.75700973928704 177.0835254655156 50.0
    vertex 88.14571617746223 173.13423479714865 50.0
  endloop
endfacet
facet normal 0.7175455141466047 -0.6965116188033654 -0.0
  outer loop
    vertex 88.14571617746223 173.13423479714865 18.3
    vertex 82.781848620536 167.60838425848664 50.0
    vertex 82.781848620536 167.60838425848664 18.3
  endloop
endfacet
facet normal 0.7175455141466047 -0.6965116188033654 -0.0
  outer loop
    vertex 82.781848620536 167.60838425848664 50.0
    vertex 88.14571617746223 173.13423479714865 18.3
    vertex 88.14571617746223 173.13423479714865 50.0
  endloop
endfacet
facet normal 0.8733662157335714 -0.48706411612355593 -0.0
  outer loop
    vertex 82.781848620536 167.60838425848664 18.3
    vertex 79.03094577830267 160.88255143183963 50.0
    vertex 79.03094577830267 160.88255143183963 18.3
  endloop
endfacet
facet normal 0.8733662157335714 -0.48706411612355593 -0.0
  outer loop
    vertex 79.03094577830267 160.88255143183963 50.0
    vertex 82.781848620536 167.60838425848664 18.3
    vertex 82.781848620536 167.60838425848664 50.0
  endloop
endfacet
facet normal 0.969668453024209 -0.24442399884143426 -0.0
  outer loop
    vertex 79.03094577830267 160.88255143183963 18.3
    vertex 77.1486254808004 153.4150907093793 50.0
    vertex 77.1486254808004 153.4150907093793 18.3
  endloop
endfacet
facet normal 0.969668453024209 -0.24442399884143426 -0.0
  outer loop
    vertex 77.1486254808004 153.4150907093793 50.0
    vertex 79.03094577830267 160.88255143183963 18.3
    vertex 79.03094577830267 160.88255143183963 50.0
  endloop
endfacet
facet normal 0.0 0.0 1.0
  outer loop
    vertex 11.068832124429855 142.36483816947563 18.3
    vertex 11.06883212442985 157.63516183052434 18.3
    vertex 10.063643999957366 150.0 18.3
  endloop
endfacet
facet normal 0.0 0.0 1.0
  outer loop
    vertex 11.06883212442985 157.63516183052434 18.3
    vertex 11.068832124429855 142.36483816947563 18.3
    vertex 14.01589458831642 164.74999999999997 18.3
  endloop
endfacet
facet normal 0.0 0.0 1.0
  outer loop
    vertex 14.01589458831642 164.74999999999997 18.3
    vertex 11.068832124429855 142.36483816947563 18.3
    vertex 14.015894588316431 135.25 18.3
  endloop
endfacet
facet normal 0.0 0.0 1.0
  outer loop
    vertex 14.01589458831642 164.74999999999997 18.3
    vertex 14.015894588316431 135.25 18.3
    vertex 18.7039939549542 170.85965004500312 18.3
  endloop
endfacet
facet normal 0.0 0.0 1.0
  outer loop
    vertex 18.7039939549542 170.85965004500312 18.3
    vertex 14.015894588316431 135.25 18.3
    vertex 18.703993954954214 129.14034995499685 18.3
  endloop
endfacet
facet normal 0.0 0.0 1.0
  outer loop
    vertex 18.7039939549542 170.85965004500312 18.3
    vertex 18.703993954954214 129.14034995499685 18.3
    vertex 24.81364399995735 175.54774941164092 18.3
  endloop
endfacet
facet normal 0.0 0.0 1.0
  outer loop
    vertex 24.81364399995735 175.54774941164092 18.3
    vertex 18.703993954954214 129.14034995499685 18.3
    vertex 24.81364399995737 124.45225058835905 18.3
  endloop
endfacet
facet normal 0.0 0.0 1.0
  outer loop
    vertex 24.81364399995735 175.54774941164092 18.3
    vertex 24.81364399995737 124.45225058835905 18.3
    vertex 31.92848216943298 178.4948118755275 18.3
  endloop
endfacet
facet normal 0.0 0.0 1.0
  outer loop
    vertex 31.92848216943298 178.4948118755275 18.3
    vertex 24.81364399995737 124.45225058835905 18.3
    vertex 31.928482169433003 121.50518812447248 18.3
  endloop
endfacet
facet normal 0.0 0.0 1.0
  outer loop
    vertex 31.92848216943298 178.4948118755275 18.3
    vertex 31.928482169433003 121.50518812447248 18.3
    vertex 39.56364399995736 179.5 18.3
  endloop
endfacet
facet normal 0.0 0.0 1.0
  outer loop
    vertex 39.56364399995736 179.5 18.3
    vertex 31.928482169433003 121.50518812447248 18.3
    vertex 39.563643999957364 120.5 18.3
  endloop
endfacet
facet normal 0.0 0.0 1.0
  outer loop
    vertex 39.56364399995736 179.5 18.3
    vertex 39.563643999957364 120.5 18.3
    vertex 47.19880583048171 178.4948118755275 18.3
  endloop
endfacet
facet normal 0.0 0.0 1.0
  outer loop
    vertex 47.19880583048171 178.4948118755275 18.3
    vertex 39.563643999957364 120.5 18.3
    vertex 47.198805830481724 121.50518812447248 18.3
  endloop
endfacet
facet normal 0.0 0.0 1.0
  outer loop
    vertex 47.19880583048171 178.4948118755275 18.3
    vertex 47.198805830481724 121.50518812447248 18.3
    vertex 54.31364399995734 175.54774941164095 18.3
  endloop
endfacet
facet normal 0.0 0.0 1.0
  outer loop
    vertex 54.31364399995734 175.54774941164095 18.3
    vertex 47.198805830481724 121.50518812447248 18.3
    vertex 54.313643999957364 124.45225058835905 18.3
  endloop
endfacet
facet normal 0.0 0.0 1.0
  outer loop
    vertex 54.31364399995734 175.54774941164095 18.3
    vertex 54.313643999957364 124.45225058835905 18.3
    vertex 60.42329404496051 170.85965004500315 18.3
  endloop
endfacet
facet normal 0.0 0.0 1.0
  outer loop
    vertex 60.42329404496051 170.85965004500315 18.3
    vertex 54.313643999957364 124.45225058835905 18.3
    vertex 60.423294044960514 129.14034995499685 18.3
  endloop
endfacet
facet normal 0.0 0.0 1.0
  outer loop
    vertex 60.42329404496051 170.85965004500315 18.3
    vertex 60.423294044960514 129.14034995499685 18.3
    vertex 65.11139341159829 164.75 18.3
  endloop
endfacet
facet normal 0.0 0.0 1.0
  outer loop
    vertex 65.11139341159829 164.75 18.3
    vertex 60.423294044960514 129.14034995499685 18.3
    vertex 65.1113934115983 135.25 18.3
  endloop
endfacet
facet normal 0.0 0.0 1.0
  outer loop
    vertex 65.11139341159829 164.75 18.3
    vertex 65.1113934115983 135.25 18.3
    vertex 68.05845587548488 157.6351618305244 18.3
  endloop
endfacet
facet normal 0.0 0.0 1.0
  outer loop
    vertex 68.05845587548488 157.6351618305244 18.3
    vertex 65.1113934115983 135.25 18.3
    vertex 68.05845587548488 142.36483816947563 18.3
  endloop
endfacet
facet normal 0.0 0.0 1.0
  outer loop
    vertex 68.05845587548488 157.6351618305244 18.3
    vertex 68.05845587548488 142.36483816947563 18.3
    vertex 69.06364399995736 150.0 18.3
  endloop
endfacet
facet normal -0.9914448613738106 0.13052619222005127 -0.0
  outer loop
    vertex 69.06364399995736 150.0 50.0
    vertex 68.05845587548488 142.36483816947563 18.3
    vertex 68.05845587548488 142.36483816947563 50.0
  endloop
endfacet
facet normal -0.9914448613738106 0.13052619222005127 -0.0
  outer loop
    vertex 68.05845587548488 142.36483816947563 18.3
    vertex 69.06364399995736 150.0 50.0
    vertex 69.06364399995736 150.0 18.3
  endloop
endfacet
facet normal -0.9914448613738105 -0.13052619222005085 -0.0
  outer loop
    vertex 68.05845587548488 157.6351618305244 50.0
    vertex 69.06364399995736 150.0 18.3
    vertex 69.06364399995736 150.0 50.0
  endloop
endfacet
facet normal -0.9914448613738105 -0.13052619222005085 -0.0
  outer loop
    vertex 69.06364399995736 150.0 18.3
    vertex 68.05845587548488 157.6351618305244 50.0
    vertex 68.05845587548488 157.6351618305244 18.3
  endloop
endfacet
facet normal -0.9238795325112861 -0.38268343236509184 -0.0
  outer loop
    vertex 65.11139341159829 164.75 50.0
    vertex 68.05845587548488 157.6351618305244 18.3
    vertex 68.05845587548488 157.6351618305244 50.0
  endloop
endfacet
facet normal -0.9238795325112861 -0.38268343236509184 -0.0
  outer loop
    vertex 68.05845587548488 157.6351618305244 18.3
    vertex 65.11139341159829 164.75 50.0
    vertex 65.11139341159829 164.75 18.3
  endloop
endfacet
facet normal -0.7933533402912353 -0.6087614290087207 -0.0
  outer loop
    vertex 60.42329404496051 170.85965004500315 50.0
    vertex 65.11139341159829 164.75 18.3
    vertex 65.11139341159829 164.75 50.0
  endloop
endfacet
facet normal -0.7933533402912353 -0.6087614290087207 -0.0
  outer loop
    vertex 65.11139341159829 164.75 18.3
    vertex 60.42329404496051 170.85965004500315 50.0
    vertex 60.42329404496051 170.85965004500315 18.3
  endloop
endfacet
facet normal -0.60876142900872 -0.7933533402912357 -0.0
  outer loop
    vertex 60.42329404496051 170.85965004500315 50.0
    vertex 54.31364399995734 175.54774941164095 18.3
    vertex 60.42329404496051 170.85965004500315 18.3
  endloop
endfacet
facet normal -0.60876142900872 -0.7933533402912357 -0.0
  outer loop
    vertex 54.31364399995734 175.54774941164095 18.3
    vertex 60.42329404496051 170.85965004500315 50.0
    vertex 54.31364399995734 175.54774941164095 50.0
  endloop
endfacet
facet normal -0.38268343236508856 -0.9238795325112874 -0.0
  outer loop
    vertex 54.31364399995734 175.54774941164095 50.0
    vertex 47.19880583048171 178.4948118755275 18.3
    vertex 54.31364399995734 175.54774941164095 18.3
  endloop
endfacet
facet normal -0.38268343236508856 -0.9238795325112874 -0.0
  outer loop
    vertex 47.19880583048171 178.4948118755275 18.3
    vertex 54.31364399995734 175.54774941164095 50.0
    vertex 47.19880583048171 178.4948118755275 50.0
  endloop
endfacet
facet normal -0.13052619222005152 -0.9914448613738105 -0.0
  outer loop
    vertex 47.19880583048171 178.4948118755275 50.0
    vertex 39.56364399995736 179.5 18.3
    vertex 47.19880583048171 178.4948118755275 18.3
  endloop
endfacet
facet normal -0.13052619222005152 -0.9914448613738105 -0.0
  outer loop
    vertex 39.56364399995736 179.5 18.3
    vertex 47.19880583048171 178.4948118755275 50.0
    vertex 39.56364399995736 179.5 50.0
  endloop
endfacet
facet normal 0.13052619222005113 -0.9914448613738105 -0.0
  outer loop
    vertex 39.56364399995736 179.5 50.0
    vertex 31.92848216943298 178.4948118755275 18.3
    vertex 39.56364399995736 179.5 18.3
  endloop
endfacet
facet normal 0.13052619222005113 -0.9914448613738105 -0.0
  outer loop
    vertex 31.92848216943298 178.4948118755275 18.3
    vertex 39.56364399995736 179.5 50.0
    vertex 31.92848216943298 178.4948118755275 50.0
  endloop
endfacet
facet normal 0.3826834323650911 -0.9238795325112864 -0.0
  outer loop
    vertex 31.92848216943298 178.4948118755275 50.0
    vertex 24.81364399995735 175.54774941164092 18.3
    vertex 31.92848216943298 178.4948118755275 18.3
  endloop
endfacet
facet normal 0.3826834323650911 -0.9238795325112864 -0.0
  outer loop
    vertex 24.81364399995735 175.54774941164092 18.3
    vertex 31.92848216943298 178.4948118755275 50.0
    vertex 24.81364399995735 175.54774941164092 50.0
  endloop
endfacet
facet normal 0.6087614290087209 -0.7933533402912352 -0.0
  outer loop
    vertex 24.81364399995735 175.54774941164092 50.0
    vertex 18.7039939549542 170.85965004500312 18.3
    vertex 24.81364399995735 175.54774941164092 18.3
  endloop
endfacet
facet normal 0.6087614290087209 -0.7933533402912352 -0.0
  outer loop
    vertex 18.7039939549542 170.85965004500312 18.3
    vertex 24.81364399995735 175.54774941164092 50.0
    vertex 18.7039939549542 170.85965004500312 50.0
  endloop
endfacet
facet normal 0.7933533402912357 -0.6087614290087199 -0.0
  outer loop
    vertex 18.7039939549542 170.85965004500312 18.3
    vertex 14.01589458831642 164.74999999999997 50.0
    vertex 14.01589458831642 164.74999999999997 18.3
  endloop
endfacet
facet normal 0.7933533402912357 -0.6087614290087199 -0.0
  outer loop
    vertex 14.01589458831642 164.74999999999997 50.0
    vertex 18.7039939549542 170.85965004500312 18.3
    vertex 18.7039939549542 170.85965004500312 50.0
  endloop
endfacet
facet normal 0.9238795325112868 -0.3826834323650895 -0.0
  outer loop
    vertex 14.01589458831642 164.74999999999997 18.3
    vertex 11.06883212442985 157.63516183052434 50.0
    vertex 11.06883212442985 157.63516183052434 18.3
  endloop
endfacet
facet normal 0.9238795325112868 -0.3826834323650895 -0.0
  outer loop
    vertex 11.06883212442985 157.63516183052434 50.0
    vertex 14.01589458831642 164.74999999999997 18.3
    vertex 14.01589458831642 164.74999999999997 50.0
  endloop
endfacet
facet normal 0.9914448613738104 -0.1305261922200516 -0.0
  outer loop
    vertex 11.06883212442985 157.63516183052434 18.3
    vertex 10.063643999957366 150.0 50.0
    vertex 10.063643999957366 150.0 18.3
  endloop
endfacet
facet normal 0.9914448613738104 -0.1305261922200516 -0.0
  outer loop
    vertex 10.063643999957366 150.0 50.0
    vertex 11.06883212442985 157.63516183052434 18.3
    vertex 11.06883212442985 157.63516183052434 50.0
  endloop
endfacet
facet normal 0.9914448613738104 0.13052619222005196 0.0
  outer loop
    vertex 10.063643999957366 150.0 18.3
    vertex 11.068832124429855 142.36483816947563 50.0
    vertex 11.068832124429855 142.36483816947563 18.3
  endloop
endfacet
facet normal 0.9914448613738104 0.13052619222005196 0.0
  outer loop
    vertex 11.068832124429855 142.36483816947563 50.0
    vertex 10.063643999957366 150.0 18.3
    vertex 10.063643999957366 150.0 50.0
  endloop
endfacet
facet normal 0.9238795325112866 0.38268343236509017 0.0
  outer loop
    vertex 11.068832124429855 142.36483816947563 18.3
    vertex 14.015894588316431 135.25 50.0
    vertex 14.015894588316431 135.25 18.3
  endloop
endfacet
facet normal 0.9238795325112866 0.38268343236509017 0.0
  outer loop
    vertex 14.015894588316431 135.25 50.0
    vertex 11.068832124429855 142.36483816947563 18.3
    vertex 11.068832124429855 142.36483816947563 50.0
  endloop
endfacet
facet normal 0.7933533402912355 0.6087614290087201 0.0
  outer loop
    vertex 14.015894588316431 135.25 18.3
    vertex 18.703993954954214 129.14034995499685 50.0
    vertex 18.703993954954214 129.14034995499685 18.3
  endloop
endfacet
facet normal 0.7933533402912355 0.6087614290087201 0.0
  outer loop
    vertex 18.703993954954214 129.14034995499685 50.0
    vertex 14.015894588316431 135.25 18.3
    vertex 14.015894588316431 135.25 50.0
  endloop
endfacet
facet normal 0.6087614290087205 0.7933533402912354 0.0
  outer loop
    vertex 18.703993954954214 129.14034995499685 50.0
    vertex 24.81364399995737 124.45225058835905 18.3
    vertex 18.703993954954214 129.14034995499685 18.3
  endloop
endfacet
facet normal 0.6087614290087205 0.7933533402912354 0.0
  outer loop
    vertex 24.81364399995737 124.45225058835905 18.3
    vertex 18.703993954954214 129.14034995499685 50.0
    vertex 24.81364399995737 124.45225058835905 50.0
  endloop
endfacet
facet normal 0.38268343236508834 0.9238795325112873 0.0
  outer loop
    vertex 24.81364399995737 124.45225058835905 50.0
    vertex 31.928482169433003 121.50518812447248 18.3
    vertex 24.81364399995737 124.45225058835905 18.3
  endloop
endfacet
facet normal 0.38268343236508834 0.9238795325112873 0.0
  outer loop
    vertex 31.928482169433003 121.50518812447248 18.3
    vertex 24.81364399995737 124.45225058835905 50.0
    vertex 31.928482169433003 121.50518812447248 50.0
  endloop
endfacet
facet normal 0.13052619222005143 0.9914448613738104 0.0
  outer loop
    vertex 31.928482169433003 121.50518812447248 50.0
    vertex 39.563643999957364 120.5 18.3
    vertex 31.928482169433003 121.50518812447248 18.3
  endloop
endfacet
facet normal 0.13052619222005143 0.9914448613738104 0.0
  outer loop
    vertex 39.563643999957364 120.5 18.3
    vertex 31.928482169433003 121.50518812447248 50.0
    vertex 39.563643999957364 120.5 50.0
  endloop
endfacet
facet normal -0.13052619222005132 0.9914448613738105 -0.0
  outer loop
    vertex 39.563643999957364 120.5 50.0
    vertex 47.198805830481724 121.50518812447248 18.3
    vertex 39.563643999957364 120.5 18.3
  endloop
endfacet
facet normal -0.13052619222005132 0.9914448613738105 -0.0
  outer loop
    vertex 47.198805830481724 121.50518812447248 18.3
    vertex 39.563643999957364 120.5 50.0
    vertex 47.198805830481724 121.50518812447248 50.0
  endloop
endfacet
facet normal -0.3826834323650883 0.9238795325112874 -0.0
  outer loop
    vertex 47.198805830481724 121.50518812447248 50.0
    vertex 54.313643999957364 124.45225058835905 18.3
    vertex 47.198805830481724 121.50518812447248 18.3
  endloop
endfacet
facet normal -0.3826834323650883 0.9238795325112874 -0.0
  outer loop
    vertex 54.313643999957364 124.45225058835905 18.3
    vertex 47.198805830481724 121.50518812447248 50.0
    vertex 54.313643999957364 124.45225058835905 50.0
  endloop
endfacet
facet normal -0.6087614290087224 0.7933533402912337 -0.0
  outer loop
    vertex 54.313643999957364 124.45225058835905 50.0
    vertex 60.423294044960514 129.14034995499685 18.3
    vertex 54.313643999957364 124.45225058835905 18.3
  endloop
endfacet
facet normal -0.6087614290087224 0.7933533402912337 -0.0
  outer loop
    vertex 60.423294044960514 129.14034995499685 18.3
    vertex 54.313643999957364 124.45225058835905 50.0
    vertex 60.423294044960514 129.14034995499685 50.0
  endloop
endfacet
facet normal -0.7933533402912353 0.6087614290087207 -0.0
  outer loop
    vertex 65.1113934115983 135.25 50.0
    vertex 60.423294044960514 129.14034995499685 18.3
    vertex 60.423294044960514 129.14034995499685 50.0
  endloop
endfacet
facet normal -0.7933533402912353 0.6087614290087207 -0.0
  outer loop
    vertex 60.423294044960514 129.14034995499685 18.3
    vertex 65.1113934115983 135.25 50.0
    vertex 65.1113934115983 135.25 18.3
  endloop
endfacet
facet normal -0.9238795325112865 0.3826834323650906 -0.0
  outer loop
    vertex 68.05845587548488 142.36483816947563 50.0
    vertex 65.1113934115983 135.25 18.3
    vertex 65.1113934115983 135.25 50.0
  endloop
endfacet
facet normal -0.9238795325112865 0.3826834323650906 -0.0
  outer loop
    vertex 65.1113934115983 135.25 18.3
    vertex 68.05845587548488 142.36483816947563 50.0
    vertex 68.05845587548488 142.36483816947563 18.3
  endloop
endfacet
endsolid Controller
